<?xml version="1.0" encoding="UTF-8" standalone="no"?>
<!-- Created with Inkscape (http://www.inkscape.org/) -->

<svg
   width="800"
   height="200"
   id="svg3220"
   version="1.1"
   inkscape:version="1.1.1 (3bf5ae0d25, 2021-09-20)"
   sodipodi:docname="ab_namn.svg"
   xmlns:inkscape="http://www.inkscape.org/namespaces/inkscape"
   xmlns:sodipodi="http://sodipodi.sourceforge.net/DTD/sodipodi-0.dtd"
   xmlns="http://www.w3.org/2000/svg"
   xmlns:svg="http://www.w3.org/2000/svg"
   xmlns:rdf="http://www.w3.org/1999/02/22-rdf-syntax-ns#"
   xmlns:cc="http://creativecommons.org/ns#"
   xmlns:dc="http://purl.org/dc/elements/1.1/">
  <defs
     id="defs3222" />
  <sodipodi:namedview
     id="base"
     pagecolor="#ffffff"
     bordercolor="#666666"
     borderopacity="1.0"
     inkscape:pageopacity="0.0"
     inkscape:pageshadow="2"
     inkscape:zoom="0.98994949"
     inkscape:cx="434.87067"
     inkscape:cy="264.65997"
     inkscape:document-units="px"
     inkscape:current-layer="layer1"
     showgrid="false"
     inkscape:window-width="1920"
     inkscape:window-height="1006"
     inkscape:window-x="0"
     inkscape:window-y="0"
     inkscape:window-maximized="1"
     inkscape:pagecheckerboard="0" />
  <metadata
     id="metadata3225">
    <rdf:RDF>
      <cc:Work
         rdf:about="">
        <dc:format>image/svg+xml</dc:format>
        <dc:type
           rdf:resource="http://purl.org/dc/dcmitype/StillImage" />
      </cc:Work>
    </rdf:RDF>
  </metadata>
  <g
     inkscape:label="Layer 1"
     inkscape:groupmode="layer"
     id="layer1"
     transform="translate(0,-852.36218)">
    <path
       style="fill:#000000;stroke:none;fill-opacity:1"
       d="m 194.15597,1046.7289 c -0.32669,-0.2425 -1.22586,-0.571 -1.99816,-0.73 -2.66243,-0.5483 -4.49603,-1.6711 -7.98414,-4.889 -2.314,-2.1348 -3.8706,-3.3938 -5.34259,-4.3214 -0.65338,-0.4117 -1.76031,-1.4004 -2.45983,-2.1971 -0.69952,-0.7967 -2.9448,-3.2354 -4.9895,-5.4193 -5.33082,-5.6938 -7.05112,-7.8018 -7.60805,-9.3227 -1.55603,-4.2492 -1.73407,-9.2194 -0.50585,-14.1221 0.86282,-3.444 1.55093,-4.7727 4.73888,-9.15033 6.0659,-8.32956 8.81817,-13.0303 11.52917,-19.69124 2.16666,-5.32352 2.66987,-7.33674 2.95588,-11.82586 0.27455,-4.30905 0.30086,-11.48188 0.0519,-14.15096 l -0.14868,-1.59415 -8.79102,-6.46094 c -4.83507,-3.55352 -8.96567,-6.5073 -9.17912,-6.56396 -0.46389,-0.12313 -1.24106,0.86318 -2.35803,2.99261 -0.43573,0.83067 -0.9049,1.54787 -1.04261,1.59378 -0.13771,0.0459 -1.68869,0.24532 -3.44662,0.44314 -3.69692,0.41603 -3.66144,0.42848 -4.52932,-1.58897 -0.82404,-1.91551 -0.71022,-4.43608 0.34813,-7.70988 1.29043,-3.99171 2.6904,-5.75676 7.07375,-8.91845 3.76484,-2.71555 6.51726,-3.70428 10.89055,-3.91212 6.91508,-0.32864 12.04083,2.06445 21.13963,9.8696 1.72599,1.48059 3.21494,2.60322 3.30879,2.49475 0.0938,-0.10848 2.55516,-3.22678 5.46958,-6.92956 2.91441,-3.70278 5.43583,-6.78486 5.60314,-6.84906 0.27325,-0.10486 3.5838,0.19948 5.84665,0.53749 0.83971,0.12543 1.0698,0.415 6.27236,7.89382 2.97038,4.26999 5.47608,7.84964 5.56823,7.95478 0.0922,0.10514 1.43494,0.025 2.98397,-0.17819 1.54904,-0.20315 3.31913,-0.36936 3.93355,-0.36936 l 1.11712,0 0.16684,2.00289 0.16684,2.00289 -1.12598,1.46328 c -3.32926,4.32664 -9.75379,7.58055 -16.47117,8.34236 l -2.45642,0.27858 -4.33282,-4.32807 -4.33282,-4.32807 -1.02411,2.20419 c -1.80989,3.89542 -3.14338,8.58258 -3.8092,13.38912 -0.75612,5.45849 -0.70623,15.01196 0.12595,24.11592 0.45547,4.98281 0.82327,6.72524 1.82543,8.64774 0.85295,1.63628 4.26736,5.19865 5.71387,5.96149 l 0.89562,0.47232 1.08406,-0.57508 c 0.59622,-0.3163 1.52966,-1.08363 2.07431,-1.70517 0.97349,-1.11092 1.0245,-1.1349 3.00983,-1.41445 2.28797,-0.32218 3.70199,-0.0818 4.55872,0.77492 0.43874,0.43874 0.47984,0.68897 0.36421,2.21776 -0.16121,2.13166 -0.98802,4.16999 -2.93741,7.24164 -0.78787,1.2414 -1.89672,3.059 -2.46411,4.0391 -1.49843,2.5883 -4.89515,5.9325 -6.71758,6.6138 -2.45466,0.9176 -1.98109,1.1865 -10.18395,-5.7822 -5.20238,-4.4197 -7.58086,-6.29628 -7.98016,-6.29628 -0.97775,0 -1.44639,0.43152 -2.26223,2.08308 -0.43463,0.8798 -1.55179,2.7823 -2.48257,4.2277 -3.05986,4.7517 -3.98875,6.742 -4.6916,10.0524 -0.28889,1.3606 -0.27711,1.6725 0.11659,3.0887 0.64597,2.3236 1.08159,3.258 2.56207,5.4956 1.74697,2.6404 4.66498,5.5189 9.80291,9.6703 4.22059,3.4101 4.80537,4.0578 6.28535,6.9614 1.33581,2.6207 0.5896,5.0455 -1.90868,6.2022 -1.17216,0.5427 -1.28138,0.5424 -2.01956,-0.01 z m -118.001801,-46.1138 -18.56821,-12.82014 -14.52495,6.87967 -14.52496,6.87967 -1.35814,-0.6473 c -1.65744,-0.79 -2.16228,-1.65633 -2.17699,-3.73604 -0.0178,-2.51937 0.192,-2.88942 3.38809,-5.97512 4.8808,-4.71223 9.19614,-7.77059 21.13787,-14.98072 12.71293,-7.67577 16.6796,-10.53065 23.01394,-16.56347 1.52126,-1.44886 3.73801,-3.52649 4.9261,-4.61697 7.57225,-6.95008 10.83545,-18.48158 10.01507,-35.39123 -0.2614,-5.3879 -0.8286,-11.6116 -1.68243,-18.46096 -0.44187,-3.54467 -0.54425,-3.946 -1.5153,-5.93988 -1.82406,-3.7454 -4.05409,-5.92788 -7.44436,-7.28565 -1.12398,-0.45014 -1.779,-0.54181 -3.73868,-0.52318 -3.99685,0.038 -7.52632,1.34234 -10.28733,3.80177 -3.0903,2.75275 -3.93131,4.65766 -3.9195,8.87776 0.0145,5.19223 1.5641,8.95814 7.67468,18.65162 1.40053,2.22173 2.92076,4.78776 3.37828,5.70229 3.28996,6.5762 4.38858,14.55879 2.9429,21.38317 -1.11497,5.26322 -4.78207,11.96599 -8.85197,16.17972 -2.93483,3.03856 -6.82182,5.42676 -10.4159,6.39963 -1.55697,0.42145 -1.61521,0.42085 -2.4601,-0.0257 -2.05554,-1.08631 -3.74952,-3.17496 -3.98837,-4.91758 -0.11987,-0.87452 0.003,-1.2839 0.92539,-3.0759 0.58501,-1.13691 2.02524,-3.43467 3.20051,-5.10612 3.13921,-4.46456 3.78157,-5.53943 4.24167,-7.09759 0.54447,-1.8439 0.54252,-5.39251 -0.004,-7.46479 -0.59032,-2.23797 -2.36994,-5.83383 -5.12677,-10.35908 -5.25489,-8.62574 -6.3284,-11.6671 -6.57503,-18.62754 -0.29523,-8.33224 1.81106,-17.4762 5.44974,-23.65874 1.46046,-2.48148 5.19602,-6.32524 7.94245,-8.17248 1.85458,-1.24738 4.61669,-2.40948 7.14485,-3.00604 4.39413,-1.03688 14.99646,-0.58859 20.80714,0.87976 5.84927,1.47811 10.66088,5.48394 15.245851,12.69273 2.70262,4.24922 5.53093,13.00799 6.81379,21.10105 0.45354,2.86123 0.53563,4.32381 0.54256,9.66753 0.008,6.45434 -0.15212,8.31307 -1.1067,12.81755 -1.07014,5.04972 -3.09577,10.48753 -5.35933,14.3871 -2.776431,4.78311 -6.981301,8.79695 -19.557981,18.66944 -2.90049,2.27684 -5.48201,4.30696 -5.7367,4.51138 -0.4393,0.35259 0.27489,0.91068 13.91027,10.86998 7.90535,5.77407 14.439401,10.49831 14.520131,10.49831 0.0807,0 1.28859,-0.76607 2.68414,-1.70238 2.67355,-1.79376 4.52811,-3.46798 5.11458,-4.61723 0.31574,-0.61874 0.9065,-4.93147 1.59156,-11.61883 0.67681,-6.60696 1.00711,-12.46517 1.31281,-23.28433 0.18462,-6.53387 0.46075,-14.71308 0.61364,-18.17604 0.3262,-7.38889 0.15635,-18.02082 -0.3587,-22.45274 -1.54226,-13.27111 -5.07922,-21.61885 -12.00798,-28.34062 -1.77347,-1.7205 -1.78125,-1.73349 -1.42256,-2.37595 0.68133,-1.22036 4.398,-1.98302 7.28426,-1.49473 2.38415,0.40334 3.67774,0.8638 6.84256,2.43564 3.15746,1.56819 3.77368,2.05494 5.15056,4.06844 1.45218,2.1236 2.74563,2.34533 3.27925,0.56213 0.48657,-1.62599 1.63161,-3.69388 2.6679,-4.81813 1.16327,-1.262 3.38343,-2.37105 7.43449,-3.71381 2.4159,-0.80077 3.25388,-0.96409 5.48698,-1.06938 2.05999,-0.0971 2.89073,-0.0395 3.80368,0.26369 1.1446,0.38017 1.18745,0.42994 2.13363,2.47829 0.85991,1.86157 0.93744,2.17387 0.70855,2.8537 -0.4004,1.1892 -1.49408,2.42126 -2.1493,2.42126 -0.32034,0 -1.03711,0.4048 -1.63866,0.92544 -0.58809,0.50899 -1.69184,1.4045 -2.45278,1.99003 l -1.38353,1.06461 -1.23458,3.65285 c -3.304,9.7759 -5.05862,19.60793 -6.01561,33.70864 -0.13747,2.0255 -0.34518,13.67955 -0.46159,25.89788 -0.11641,12.21833 -0.285,22.8633 -0.37465,23.65549 -0.21476,1.89762 0.0926,2.47237 2.85079,5.33112 1.19777,1.24144 2.81314,3.05904 3.5897,4.03912 2.29154,2.89211 6.27422,6.89027 6.86358,6.89027 0.28406,0 1.72693,-0.4922 3.20638,-1.09377 2.97594,-1.21008 4.50962,-1.42341 5.5128,-0.7668 0.49466,0.32377 0.67728,0.75242 0.99463,2.33463 l 0.38871,1.93804 -8.45977,9.00746 c -7.72609,8.2262 -8.51379,8.9955 -9.08267,8.8704 -3.7045,-0.8149 -5.78108,-2.3126 -10.06341,-7.2582 -4.11179,-4.74859 -5.6193,-6.02188 -8.09831,-6.84002 l -0.88282,-0.29136 -2.27103,1.86111 c -7.4518,6.10677 -18.253131,13.57457 -20.173701,13.94777 -0.6422,0.1247 -2.55169,-1.1312 -19.281,-12.6817 z m 175.856241,12.4681 c -0.52271,-0.1723 -1.19912,-0.3215 -1.50313,-0.3315 -0.63166,-0.021 -3.44983,-1.8445 -5.78775,-3.7453 -3.45777,-2.8112 -8.76924,-8.8237 -9.60104,-10.86825 -0.29509,-0.72534 -1.08709,-2.23026 -1.75999,-3.34428 -2.03917,-3.37595 -2.89648,-5.97353 -3.72442,-11.28464 -1.12312,-7.20462 0.0925,-21.99151 2.67169,-32.49763 2.89564,-11.79533 8.16466,-21.1929 15.26658,-27.22875 3.24866,-2.761 5.38107,-3.95777 9.00093,-5.05161 1.82227,-0.55065 2.53082,-0.63456 5.53493,-0.65549 3.55136,-0.0247 5.22709,0.16873 5.22709,0.60348 0,0.13725 0.20552,0.53818 0.4567,0.89094 0.30945,0.43456 0.53842,1.37407 0.71006,2.91335 0.4409,3.95395 1.51875,6.79196 3.99863,10.52847 1.27601,1.92263 2.90957,3.73025 8.43786,9.33697 l 6.85553,6.95276 -2.32936,1.73204 c -1.28114,0.95263 -9.97397,7.38245 -19.31739,14.2885 -9.34344,6.90605 -17.04152,12.60348 -17.10686,12.66095 -0.27192,0.23918 -0.0477,4.60362 0.33135,6.4498 0.62272,3.033 5.15286,11.99418 6.99839,13.84368 0.3646,0.36539 0.86713,-0.0462 7.16357,-5.86718 l 6.77146,-6.26014 2.6226,-0.0133 c 2.26478,-0.0115 2.76666,0.0596 3.6784,0.52129 0.88918,0.45022 1.10575,0.70333 1.37219,1.60376 0.45582,1.54054 0.21431,3.37287 -0.67071,5.08861 -0.6287,1.21887 -2.08454,2.74718 -9.29399,9.75677 -7.00547,6.8112 -8.7226,8.3629 -9.51307,8.5963 -0.53053,0.1566 -1.37298,0.613 -1.87212,1.0141 -0.79212,0.6366 -1.08306,0.7262 -2.28764,0.7044 -0.75906,-0.014 -1.80778,-0.1659 -2.33049,-0.3381 z m 4.09475,-53.36627 c 3.30853,-2.5009 6.0645,-4.62634 6.12437,-4.72321 0.0599,-0.0969 -1.12855,-3.10254 -2.64091,-6.67928 -1.51236,-3.57674 -2.85016,-6.75856 -2.97287,-7.07071 -0.12272,-0.31215 -0.27743,-0.51323 -0.3438,-0.44686 -0.11056,0.11056 -7.46908,23.12896 -7.46908,23.36424 0,0.0566 0.28952,0.10291 0.64339,0.10291 0.46748,0 2.28799,-1.24315 6.6589,-4.54709 z m 54.82886,50.72537 c -0.39203,-0.2152 -1.73242,-1.3647 -2.97868,-2.5546 -1.271,-1.2134 -3.96751,-3.3505 -6.14139,-4.8672 -7.55356,-5.26988 -10.44088,-7.97698 -12.32097,-11.55183 -1.4232,-2.70605 -0.57436,-6.00434 2.57546,-10.00752 0.8102,-1.02973 1.57407,-2.00211 1.69745,-2.16085 0.26917,-0.34627 0.78404,-26.62962 0.75068,-38.32061 -0.0231,-8.07913 -0.24714,-12.33557 -0.94439,-17.93844 -1.82407,-14.65737 -6.25558,-26.29195 -13.39312,-35.16244 -2.26621,-2.81643 -2.25877,-2.79422 -2.26521,-6.77311 -0.005,-3.34783 0.013,-3.47701 0.65785,-4.57371 0.36485,-0.62072 0.78525,-1.12858 0.9342,-1.12858 0.77197,0 4.1333,1.07262 4.3129,1.37628 0.11454,0.19363 0.96989,1.2015 1.90076,2.23972 3.73357,4.16401 4.55826,5.21818 7.20835,9.21414 4.6275,6.97765 6.04036,9.44198 7.45277,12.99938 0.40406,1.01768 0.8437,1.98201 0.97697,2.14295 0.60648,0.73244 1.24089,-0.47795 4.31991,-8.24202 l 3.1181,-7.86259 5.34589,-7.39 5.3459,-7.39 3.7641,-2.84277 c 7.58254,-5.72654 12.01205,-8.28826 17.38717,-10.05548 4.56513,-1.50091 7.36072,-2.00925 11.04977,-2.00925 3.61185,0 3.88425,0.10426 3.84536,1.47179 -0.0301,1.05772 -0.53483,1.44296 -3.61466,2.75879 -9.90225,4.23066 -18.05576,9.9479 -21.24334,14.89584 -0.50513,0.78406 -1.58492,2.12053 -2.39957,2.96994 -7.85169,8.18671 -13.56131,21.11452 -16.26493,36.82725 -1.23733,7.19104 -1.41766,9.71136 -1.41937,19.8392 0,5.09642 -0.1074,11.51149 -0.23669,14.25571 -0.73164,15.52628 -0.78158,17.52289 -0.63597,25.42269 0.0843,4.57371 0.2317,8.85551 0.32759,9.51512 0.16446,1.13141 0.29531,1.31018 2.31251,3.15895 1.92636,1.76552 2.22057,1.9527 2.96994,1.88945 0.75266,-0.0635 0.96139,-0.26228 2.19488,-2.08977 0.74971,-1.11076 1.74464,-2.35678 2.21097,-2.76894 0.77877,-0.68833 0.91935,-0.73035 1.7256,-0.51575 0.95134,0.25322 3.93413,1.6708 4.64072,2.20552 0.57566,0.43565 0.89773,3.00422 0.62176,4.95889 -0.30724,2.17606 -1.58885,4.44606 -4.53598,8.03405 -1.4337,1.7454 -2.92159,3.8301 -3.30639,4.6325 -0.38484,0.8024 -1.16019,1.9785 -1.723,2.6135 -0.56279,0.6351 -1.25935,1.4939 -1.54789,1.9086 -0.52701,0.7575 -0.88124,0.8968 -2.89405,1.1382 -0.746,0.089 -1.28463,0.01 -1.78196,-0.263 z m 365.28654,-1.665 -3.19143,-2.0555 -3.92035,-5.3367 c -10.0415,-13.66954 -13.38688,-20.11442 -15.59816,-30.05014 -0.59435,-2.67046 -0.64955,-3.34827 -0.66274,-8.14012 -0.0152,-5.53283 0.2241,-8.18305 1.20135,-13.30533 1.81479,-9.5118 5.39085,-19.00286 9.53418,-25.30389 3.02993,-4.60789 7.90551,-8.39195 13.0282,-10.11159 1.63004,-0.54719 5.86643,-1.27613 7.48743,-1.28834 1.03387,-0.008 3.59318,3.89142 7.95026,12.11272 5.70301,10.761 8.92172,14.85473 14.58342,18.5483 l 0.57066,0.37227 -0.49707,0.9345 c -0.27336,0.51398 -0.68977,1.46909 -0.92535,2.12248 -0.81094,2.24931 -6.16451,6.87378 -17.07057,14.74584 -5.04684,3.64283 -7.74082,5.8632 -10.50362,8.65708 l -2.40517,2.43224 0.11357,1.33813 c 0.27718,3.26584 1.28049,6.51012 3.14257,10.16159 1.88333,3.69314 5.41042,9.47097 5.83125,9.55228 0.61491,0.11882 1.43439,-0.76822 2.12259,-2.29756 0.59136,-1.31416 0.76174,-1.46114 6.93297,-5.98038 3.62928,-2.65778 6.49595,-4.59864 6.72373,-4.55226 0.21841,0.0444 0.58419,0.24814 0.81286,0.45261 0.36038,0.32224 0.41577,0.83865 0.41577,3.87552 l 0,3.50373 -3.70601,5.66626 c -4.20009,6.42166 -4.56426,6.90366 -7.6901,10.17766 -4.27829,4.4811 -6.46038,5.824 -9.46372,5.824 l -1.62508,0 -3.19144,-2.0554 z m 0.56958,-49.42276 c 1.06767,-0.8054 3.05799,-2.52184 4.42286,-3.81431 l 2.4816,-2.34995 -3.40008,-8.42185 c -1.87008,-4.63201 -3.51022,-8.63102 -3.64479,-8.88668 -0.21689,-0.41198 -0.31069,-0.31741 -0.82478,0.83158 -2.54557,5.68942 -3.89494,12.59585 -4.25292,21.76756 l -0.16371,4.19471 1.7203,-0.92835 c 0.94615,-0.5106 2.5938,-1.58732 3.66152,-2.39271 z m 69.08914,50.92476 c -2.06229,-1.103 -11.35259,-9.8702 -13.80191,-13.02465 -1.80091,-2.31937 -3.32797,-5.26019 -3.95175,-7.6104 l -0.42113,-1.58682 2.20555,-3.32537 2.20559,-3.32537 0.26659,-8.74953 c 0.14664,-4.81224 0.26958,-14.41618 0.27321,-21.34208 0.006,-10.68974 -0.0586,-13.14869 -0.42505,-16.27306 -0.2374,-2.02428 -0.45576,-3.70463 -0.48524,-3.73412 -0.061,-0.061 -16.90647,0.78735 -19.64381,0.98927 l -1.79419,0.13234 -0.98476,-1.7607 c -1.62724,-2.90958 -1.55478,-3.01967 6.68272,-10.148 l 5.43598,-4.70402 4.00979,-5.39023 c 8.24103,-11.07813 13.05092,-19.05169 16.54068,-27.4201 1.13223,-2.71504 2.98102,-8.24599 3.51434,-10.51359 l 0.43305,-1.84136 0.96631,9.8e-4 c 0.53151,4.8e-4 1.29055,0.1986 1.6868,0.44024 0.87854,0.53577 2.09423,2.74312 2.65055,4.81279 0.63615,2.36656 0.53014,7.7896 -0.26187,13.39731 -0.35072,2.48287 -0.74045,5.94657 -0.86614,7.69712 -0.12569,1.75054 -0.44119,5.43533 -0.70115,8.18841 -0.47989,5.08214 -0.59288,8.52029 -0.32418,9.86385 l 0.1485,0.74248 9.8899,9.8e-4 9.8899,9.9e-4 0.9021,0.54609 c 1.52196,0.92132 3.46307,3.01425 4.21814,4.54791 1.15289,2.34193 1.15136,2.85635 -0.0152,5.09829 -0.55358,1.06411 -1.2747,2.14569 -1.60246,2.40352 -1.58858,1.24955 -6.65829,2.25632 -13.23136,2.62756 -2.48989,0.14062 -5.74603,0.32736 -7.23576,0.41497 l -2.70869,0.1593 -0.0476,14.37451 c -0.026,7.90598 -0.1775,19.82732 -0.3363,26.49186 -0.26104,10.95584 -0.25241,12.21887 0.0901,13.1764 0.56438,1.57787 1.67993,3.18753 3.12295,4.50639 1.31566,1.20244 4.30036,2.8692 5.13795,2.8692 0.25658,0 1.28466,-0.5736 2.28463,-1.27468 1.66584,-1.16787 1.96201,-1.28847 3.53509,-1.4394 1.82387,-0.17498 2.61543,0.0458 3.85231,1.07444 0.80206,0.66708 0.75104,2.17969 -0.15199,4.50402 -0.92859,2.39016 -2.18891,4.26836 -4.21745,6.28516 -2.17881,2.1662 -4.36346,3.683 -7.73366,5.3694 -2.46448,1.2332 -7.34389,3.3008 -7.78974,3.3008 -0.0974,0 -0.64262,-0.249 -1.21165,-0.5534 z m -373.66501,-0.546 c -2.86611,-1.7031 -27.15602,-18.00107 -27.05991,-18.15656 0.0548,-0.0887 -0.0706,-0.5948 -0.2787,-1.12464 -0.44642,-1.13641 -0.45576,-1.0547 1.934,-16.92187 3.26859,-21.70228 3.64454,-26.89543 2.8553,-39.4408 -0.65084,-10.34515 -1.81597,-17.31632 -4.04819,-24.22134 -2.61609,-8.09234 -6.32053,-14.45148 -11.58833,-19.89278 -2.50739,-2.58997 -2.58368,-2.70111 -3.17427,-4.62424 -0.65519,-2.13341 -0.64762,-3.28468 0.0284,-4.31639 0.4903,-0.74831 2.06081,-1.00631 4.9722,-0.81682 3.35428,0.21832 5.64073,1.35826 8.46138,4.21853 2.01277,2.04103 3.34007,4.0093 6.88658,10.21223 3.15249,5.51379 4.36109,7.40261 5.64859,8.82773 0.87794,0.97177 1.24536,1.13616 1.24536,0.5572 0,-0.19605 0.54468,-2.01346 1.2104,-4.03869 4.4704,-13.59949 13.11778,-23.2979 28.96419,-32.48462 3.21823,-1.86572 4.34975,-2.30511 8.72157,-3.38682 5.75309,-1.42346 12.27215,-1.66683 16.34473,-0.61018 2.11162,0.54787 4.87599,1.77964 6.58713,2.93516 0.91843,0.62019 1.1229,0.88755 1.12495,1.47076 0.002,0.39204 -0.0761,0.81971 -0.17207,0.95039 -0.10419,0.14182 -1.89855,0.24548 -4.45128,0.25717 -3.439,0.0158 -4.76537,0.12209 -6.77146,0.5429 -9.15599,1.92065 -17.61814,6.5474 -24.79363,13.55615 -1.94434,1.89914 -3.02126,3.15516 -3.4789,4.0574 -0.80043,1.57806 -2.25553,3.55946 -4.3334,5.90076 -4.64625,5.23526 -10.58477,19.94745 -12.38748,30.6889 -0.81846,4.87689 -1.14041,11.61418 -0.67058,14.03372 l 0.16451,0.84719 11.52337,-10.65844 11.52336,-10.65845 2.10151,0.12826 c 1.96731,0.12008 2.14532,0.17518 2.7878,0.86295 0.50467,0.54024 0.81485,1.27602 1.1721,2.78016 0.83125,3.50005 1.83231,6.74929 4.9934,16.20754 1.68146,5.03108 3.44276,10.53735 3.91402,12.23615 0.47125,1.69881 1.38114,4.27804 2.02194,5.73162 0.64082,1.45359 1.59754,3.72829 2.12605,5.05491 0.52853,1.3266 1.28714,3.08102 1.68583,3.89871 l 0.7249,1.4867 -2.35963,5.21936 c -8.68315,19.20661 -15.48673,28.52878 -25.882,35.46309 -1.78532,1.1909 -4.67761,2.9173 -6.37297,3.804 -0.40957,0.2142 -0.73614,0.115 -1.90076,-0.577 z m 8.30069,-23.61052 c 5.93727,-7.9364 7.9383,-11.51116 8.80549,-15.73067 0.62958,-3.06335 0.51349,-5.05334 -0.42206,-7.23562 -1.81962,-4.24439 -5.75537,-11.47229 -9.584,-17.60083 l -1.66844,-2.67069 -3.06258,2.17716 c -3.56397,2.53361 -7.25634,6.10016 -8.45542,8.1673 -1.23088,2.12198 -1.54251,3.38956 -1.83658,7.47066 -0.14595,2.0255 -0.47804,5.17958 -0.73797,7.00906 -0.77772,5.47383 -0.95516,7.41079 -0.96654,10.55171 l -0.0109,2.99122 3.52199,3.38797 c 3.09509,2.97728 3.91085,3.61791 6.72955,5.28476 1.76415,1.04323 3.27568,1.87084 3.35893,1.83912 0.0833,-0.0317 2.03109,-2.57023 4.32846,-5.64115 z m 83.1852,17.63862 c -4.04685,-3.7093 -8.02108,-7.33292 -8.83163,-8.05261 l -1.47376,-1.30853 -1.356,0.28151 c -2.62348,0.54463 -2.8294,0.67251 -12.44695,7.72943 -3.3623,2.4671 -8.42289,5.737 -9.69322,6.2632 -0.69073,0.2861 -0.85491,0.2488 -2.23817,-0.5077 -2.57532,-1.4085 -5.66337,-5.5344 -8.40761,-11.23334 -5.24836,-10.89922 -6.5381,-23.14478 -5.09241,-48.35062 l 0.55191,-9.62261 10.58005,-11.87976 c 12.39035,-13.91249 10.90367,-12.83064 14.88933,-10.83493 3.06367,1.53406 6.2795,2.57873 11.76507,3.82191 2.41753,0.54788 5.41123,1.26601 6.65267,1.59584 2.1633,0.57476 2.57819,0.6022 9.97899,0.6599 7.14906,0.0557 8.12453,0.11545 13.15016,0.80497 2.98558,0.40962 5.59078,0.74477 5.78937,0.74477 0.49562,0 0.2872,2.25693 -0.47177,5.1083 -0.66703,2.50598 -1.06754,3.33986 -2.45343,5.1083 -1.41749,1.80876 -3.20512,3.26708 -7.2233,5.89267 -1.89482,1.23813 -3.48141,2.28159 -3.52577,2.3188 -0.19682,0.16512 -1.49635,4.99542 -2.04161,7.58861 -0.9169,4.36063 -1.50602,8.80711 -1.83205,13.8274 -0.46949,7.22927 0.21225,16.23753 1.5989,21.12742 0.39296,1.38572 0.41848,1.41341 3.09247,3.35708 l 2.69625,1.95985 3.5559,-1.51221 3.55592,-1.51221 0.93745,0.41972 c 1.2389,0.55467 2.81708,2.00239 3.37499,3.09601 0.6934,1.35915 0.64256,2.29054 -0.21728,3.98003 -1.03643,2.03652 -3.10567,4.03268 -6.68086,6.4449 -1.63347,1.1021 -3.68665,2.5724 -4.56262,3.2672 -1.57244,1.2474 -3.39955,3.5358 -3.96484,4.9661 -0.23256,0.5883 -0.49116,0.7811 -1.29444,0.9649 l -1.00384,0.2297 -7.35787,-6.744 z m -16.8302,-19.23717 6.68414,-3.03456 0.14613,-3.44513 c 0.35924,-8.47025 0.69082,-33.78702 0.44451,-33.93893 -0.33879,-0.20894 -20.96013,-4.16336 -21.08092,-4.04256 -0.27913,0.27913 -0.6359,10.92957 -0.75496,22.5378 -0.12927,12.60533 -0.1135,13.31345 0.35796,16.06581 0.90277,5.27034 2.02579,7.13351 4.97304,8.25058 0.87755,0.33262 1.8094,0.61304 2.07076,0.62315 0.26135,0.0101 3.48305,-1.34716 7.15934,-3.01616 z m 73.40482,24.58767 c -0.64621,-0.1708 -1.5184,-0.8013 -2.85114,-2.0611 -15.59356,-14.73961 -13.7287,-12.7216 -14.24265,-15.41242 -0.39065,-2.04525 -0.39362,-2.28988 -0.0408,-3.3523 0.20936,-0.63033 0.77111,-1.60222 1.24835,-2.15975 0.72195,-0.84345 0.94363,-1.37774 1.32003,-3.18156 0.40072,-1.92041 0.47861,-3.91729 0.68247,-17.49278 0.12654,-8.42868 0.1737,-16.44752 0.10479,-17.81963 -0.21689,-4.31902 -1.3804,-7.68705 -3.23407,-9.36172 -0.81896,-0.7399 -1.04131,-0.80528 -4.05382,-1.19205 -6.6732,-0.85675 -9.59605,-1.34502 -10.12458,-1.69134 -1.44443,-0.94642 0.19804,-4.65597 4.07155,-9.19572 1.10537,-1.29547 1.87644,-1.96252 2.68355,-2.32154 5.47039,-2.43334 11.9062,-2.51483 16.57623,-0.20991 2.35427,1.16197 2.44332,1.23411 3.41724,2.76892 0.46664,0.7354 1.02064,1.30657 1.34659,1.38838 0.95136,0.23877 8.15896,-3.38617 13.85053,-6.9659 2.78927,-1.75433 5.19492,-3.14193 5.34588,-3.08357 0.15095,0.0584 2.61716,1.67735 5.48047,3.59776 5.7351,3.84653 8.75142,5.47633 12.36103,6.67904 1.31505,0.43816 3.0565,1.07182 3.86993,1.40814 1.47708,0.61072 4.00512,1.04341 8.90785,1.52465 3.96758,0.38945 4.59578,0.60321 5.04075,1.71531 0.47523,1.18775 0.47571,2.80131 0,3.94596 -0.31938,0.77033 -1.12609,1.41156 -5.75995,4.57851 -3.75232,2.56446 -5.49731,3.89917 -5.74669,4.39552 -0.30957,0.61613 -0.35696,3.06463 -0.34962,18.05723 0.007,15.11159 0.06,17.65716 0.40859,19.77349 0.56044,3.40257 1.68139,5.53577 3.37055,6.4142 1.21751,0.63315 1.91074,0.74369 2.52611,0.40279 0.31707,-0.17566 1.2354,-0.32316 2.04071,-0.32779 1.19824,-0.007 1.73774,0.13265 2.96993,0.76815 l 1.50574,0.77657 0.62528,2.55785 0.62528,2.55786 -2.51062,3.37764 c -4.04254,5.43861 -6.7244,7.70031 -9.65098,8.13921 -0.94698,0.142 -1.2512,0.031 -3.96712,-1.4428 -3.6517,-1.9821 -7.17892,-4.2681 -9.35655,-6.064 -2.33829,-1.92828 -5.51166,-5.20722 -5.80868,-6.00186 -0.60684,-1.62358 -0.0709,-4.69972 1.24939,-7.17073 l 0.76226,-1.42663 -0.15351,-15.44369 c -0.10721,-10.78469 -0.27257,-17.02057 -0.54818,-20.67078 -0.57474,-7.61161 -0.68701,-8.44269 -1.19035,-8.81075 -0.74857,-0.54735 -13.54469,-7.54314 -13.79787,-7.54344 -0.13294,-1.5e-4 -1.44268,0.88194 -2.91054,1.96021 l -2.66881,1.96049 0.004,25.69955 0.004,25.69956 0.53069,0.92803 c 0.29186,0.51043 0.81067,1.13562 1.15291,1.38932 0.60551,0.44886 0.67192,0.45021 2.47039,0.0501 1.30105,-0.28946 2.37698,-0.37118 3.63457,-0.27607 2.34026,0.177 2.96903,0.74531 3.59023,3.24509 l 0.43192,1.73809 -0.95007,1.68982 c -2.59489,4.61529 -7.16943,9.19149 -11.27479,11.27899 -1.0875,0.5529 -1.59833,0.5891 -3.01941,0.2134 z m 77.75494,-7.7236 c -10.21888,-7.80364 -16.18055,-12.92028 -17.64152,-15.141 -1.02118,-1.55221 -1.80318,-3.68987 -1.80318,-4.92912 0,-1.42854 0.79927,-2.93688 1.72779,-3.26056 1.05806,-0.36884 2.04743,-1.39056 2.18117,-2.25245 0.0623,-0.40181 0.22337,-8.16136 0.35785,-17.24343 0.13445,-9.08208 0.3106,-18.82359 0.39146,-21.64782 l 0.14695,-5.13494 4.51409,-5.08165 c 2.48276,-2.79491 5.1413,-5.78821 5.90788,-6.65178 l 1.39376,-1.57013 -3.01808,-3.53817 c -1.65994,-1.94599 -4.57848,-5.4296 -6.48563,-7.74136 -2.99715,-3.63298 -3.51922,-4.39044 -3.84838,-5.58348 -0.7704,-2.79216 -0.98469,-4.54905 -0.97977,-8.03296 0.004,-3.189 0.0731,-3.78889 0.65205,-5.70229 0.81916,-2.70729 1.82381,-4.39236 3.45117,-5.7886 0.70623,-0.60591 1.83929,-1.79662 2.51794,-2.64603 1.0486,-1.31244 1.42666,-1.60704 2.51751,-1.96171 2.23591,-0.72696 3.30989,-0.8509 8.0551,-0.92954 4.49549,-0.0745 4.65562,-0.0608 5.38934,0.46169 0.91731,0.65318 2.69027,2.63248 2.68511,2.9976 -0.002,0.14495 -0.98457,0.90505 -2.18338,1.68911 -2.93069,1.91678 -4.54945,3.44001 -5.31194,4.99848 -0.60088,1.22818 -0.61722,1.35948 -0.35587,2.86027 0.15066,0.86514 0.58551,2.42675 0.96633,3.47022 2.01169,5.51219 5.5172,9.6282 14.72923,17.29442 2.41754,2.01186 5.35778,4.58492 6.53387,5.7179 1.1761,1.13299 3.15408,2.86191 4.39552,3.84205 5.04398,3.98232 10.99272,10.30785 14.25738,15.16039 2.7659,4.11122 4.60683,8.07235 5.5652,11.97474 0.49761,2.02624 0.5189,2.44989 0.34754,6.91048 -0.10823,2.81651 -0.32379,5.28413 -0.5293,6.05868 -0.19069,0.71872 -0.41745,2.10865 -0.50384,3.08873 -0.45262,5.13466 -2.23174,11.07018 -5.09262,16.99039 -2.36342,4.8907 -5.28188,9.92195 -6.54515,11.28344 -0.54561,0.58805 -1.67003,2.0849 -2.49869,3.32634 -2.14865,3.21894 -3.39201,4.60817 -5.45072,6.09029 -0.99381,0.7155 -2.33843,1.719 -2.98804,2.2301 -0.64959,0.5111 -2.1999,1.487 -3.44514,2.1688 -1.24521,0.6817 -2.85886,1.6492 -3.58585,2.1499 -1.05516,0.7268 -1.72616,0.9816 -3.32633,1.2632 -1.1025,0.194 -2.27629,0.3529 -2.60842,0.3531 -0.42698,2e-4 -3.49797,-2.2097 -10.48239,-7.5433 z m 16.53622,-9.55182 c 1.62626,-1.25935 3.00028,-2.58637 4.12068,-3.97972 0.92449,-1.14971 2.59371,-3.21301 3.70939,-4.58512 3.13393,-3.85425 5.36525,-8.2437 8.24056,-16.21086 l 1.22371,-3.39075 -0.14132,-2.61354 c -0.30971,-5.72732 -2.44053,-11.35042 -6.40471,-16.90162 -2.20127,-3.08252 -3.28787,-4.35965 -7.60505,-8.93865 -3.77339,-4.00223 -4.6672,-4.67095 -8.36841,-6.26097 l -2.0369,-0.87505 -1.07667,1.04445 c -3.40388,3.30205 -5.93132,9.28371 -7.3625,17.42469 -0.58527,3.32913 -0.67717,13.76078 -0.21754,24.69071 0.35159,8.36072 0.43392,9.32264 0.87121,10.17983 0.70882,1.38938 3.89276,4.60782 7.84283,7.92778 1.90977,1.60514 3.72737,3.24095 4.03912,3.63515 0.31175,0.3942 0.60259,0.72264 0.64631,0.72987 0.0438,0.007 1.17742,-0.83706 2.51929,-1.8762 z"
       id="path3408"
       inkscape:connector-curvature="0"
       inkscape:export-filename="/home/aton3/barba/Documents/Projekt/Axelbandet/ab_namn.png"
       inkscape:export-xdpi="266.095"
       inkscape:export-ydpi="266.095" />
  </g>
</svg>
