<?xml version="1.0" encoding="UTF-8" standalone="no"?>
<svg
   version="1.2"
   width="350"
   height="350"
   viewBox="0 0 9877.7778 9877.7783"
   preserveAspectRatio="xMidYMid"
   clip-path="url(#presentation_clip_path)"
   xml:space="preserve"
   id="svg2"
   inkscape:version="1.1.1 (3bf5ae0d25, 2021-09-20)"
   sodipodi:docname="ab_simple.svg"
   style="fill-rule:evenodd;stroke-width:28.22200012;stroke-linejoin:round"
   xmlns:inkscape="http://www.inkscape.org/namespaces/inkscape"
   xmlns:sodipodi="http://sodipodi.sourceforge.net/DTD/sodipodi-0.dtd"
   xmlns="http://www.w3.org/2000/svg"
   xmlns:svg="http://www.w3.org/2000/svg"
   xmlns:rdf="http://www.w3.org/1999/02/22-rdf-syntax-ns#"
   xmlns:cc="http://creativecommons.org/ns#"
   xmlns:dc="http://purl.org/dc/elements/1.1/"
   xmlns:ooo="http://xml.openoffice.org/svg/export"><metadata
     id="metadata241"><rdf:RDF><cc:Work
         rdf:about=""><dc:format>image/svg+xml</dc:format><dc:type
           rdf:resource="http://purl.org/dc/dcmitype/StillImage" /></cc:Work></rdf:RDF></metadata><sodipodi:namedview
     pagecolor="#ffffff"
     bordercolor="#666666"
     borderopacity="1"
     objecttolerance="10"
     gridtolerance="10"
     guidetolerance="10"
     inkscape:pageopacity="0"
     inkscape:pageshadow="2"
     inkscape:window-width="1920"
     inkscape:window-height="1006"
     id="namedview239"
     showgrid="false"
     inkscape:zoom="1.5984936"
     inkscape:cx="101.65821"
     inkscape:cy="160.15078"
     inkscape:window-x="0"
     inkscape:window-y="0"
     inkscape:window-maximized="1"
     inkscape:current-layer="svg2"
     inkscape:pagecheckerboard="0" /><defs
     class="ClipPathGroup"
     id="defs4"><clipPath
       id="presentation_clip_path"
       clipPathUnits="userSpaceOnUse"><rect
         x="0"
         y="0"
         width="29703"
         height="21001"
         id="rect7" /></clipPath></defs><defs
     class="TextShapeIndex"
     id="defs9"><g
       ooo:slide="id1"
       ooo:id-list="id3"
       id="g11" /></defs><defs
     class="EmbeddedBulletChars"
     id="defs13"><g
       id="bullet-char-template(57356)"
       transform="scale(4.8828125e-4,-4.8828125e-4)"><path
         d="M 580,1141 1163,571 580,0 -4,571 580,1141 z"
         id="path16"
         inkscape:connector-curvature="0" /></g><g
       id="bullet-char-template(57354)"
       transform="scale(4.8828125e-4,-4.8828125e-4)"><path
         d="m 8,1128 1129,0 L 1137,0 8,0 8,1128 z"
         id="path19"
         inkscape:connector-curvature="0" /></g><g
       id="bullet-char-template(10146)"
       transform="scale(4.8828125e-4,-4.8828125e-4)"><path
         d="M 174,0 602,739 174,1481 1456,739 174,0 z m 1184,739 -1049,607 350,-607 699,0 z"
         id="path22"
         inkscape:connector-curvature="0" /></g><g
       id="bullet-char-template(10132)"
       transform="scale(4.8828125e-4,-4.8828125e-4)"><path
         d="M 2015,739 1276,0 717,0 l 543,543 -1086,0 0,393 1086,0 -543,545 557,0 741,-742 z"
         id="path25"
         inkscape:connector-curvature="0" /></g><g
       id="bullet-char-template(10007)"
       transform="scale(4.8828125e-4,-4.8828125e-4)"><path
         d="m 0,-2 c -7,16 -16,29 -25,39 l 381,530 c -94,256 -141,385 -141,387 0,25 13,38 40,38 9,0 21,-2 34,-5 21,4 42,12 65,25 l 27,-13 111,-251 280,301 64,-25 24,25 c 21,-10 41,-24 62,-43 C 886,937 835,863 770,784 769,783 710,716 594,584 L 774,223 c 0,-27 -21,-55 -63,-84 l 16,-20 C 717,90 699,76 672,76 641,76 570,178 457,381 L 164,-76 c -22,-34 -53,-51 -92,-51 -42,0 -63,17 -64,51 -7,9 -10,24 -10,44 0,9 1,19 2,30 z"
         id="path28"
         inkscape:connector-curvature="0" /></g><g
       id="bullet-char-template(10004)"
       transform="scale(4.8828125e-4,-4.8828125e-4)"><path
         d="M 285,-33 C 182,-33 111,30 74,156 52,228 41,333 41,471 c 0,78 14,145 41,201 34,71 87,106 158,106 53,0 88,-31 106,-94 l 23,-176 c 8,-64 28,-97 59,-98 l 735,706 c 11,11 33,17 66,17 42,0 63,-15 63,-46 l 0,-122 c 0,-36 -10,-64 -30,-84 L 442,47 C 390,-6 338,-33 285,-33 z"
         id="path31"
         inkscape:connector-curvature="0" /></g><g
       id="bullet-char-template(9679)"
       transform="scale(4.8828125e-4,-4.8828125e-4)"><path
         d="M 813,0 C 632,0 489,54 383,161 276,268 223,411 223,592 c 0,181 53,324 160,431 106,107 249,161 430,161 179,0 323,-54 432,-161 108,-107 162,-251 162,-431 0,-180 -54,-324 -162,-431 C 1136,54 992,0 813,0 z"
         id="path34"
         inkscape:connector-curvature="0" /></g><g
       id="bullet-char-template(8226)"
       transform="scale(4.8828125e-4,-4.8828125e-4)"><path
         d="m 346,457 c -73,0 -137,26 -191,78 -54,51 -81,114 -81,188 0,73 27,136 81,188 54,52 118,78 191,78 73,0 134,-26 185,-79 51,-51 77,-114 77,-187 0,-75 -25,-137 -76,-188 -50,-52 -112,-78 -186,-78 z"
         id="path37"
         inkscape:connector-curvature="0" /></g><g
       id="bullet-char-template(8211)"
       transform="scale(4.8828125e-4,-4.8828125e-4)"><path
         d="m -4,459 1139,0 0,147 -1139,0 0,-147 z"
         id="path40"
         inkscape:connector-curvature="0" /></g></defs><defs
     class="TextEmbeddedBitmaps"
     id="defs42" /><path
     sodipodi:type="arc"
     style="fill:none;stroke:none"
     id="path3218"
     sodipodi:cx="12.020815"
     sodipodi:cy="9.8816376"
     sodipodi:rx="234.05234"
     sodipodi:ry="288.85312"
     d="m 246.07315,9.8816376 a 234.05234,288.85312 0 1 1 -468.10467,0 234.05234,288.85312 0 1 1 468.10467,0 z"
     transform="matrix(19.112061,0,0,15.486149,4709.1464,4785.8606)"
     inkscape:export-filename="/home/aton3/barba/Documents/Projekt/Axelbandet/ablogo.png"
     inkscape:export-xdpi="266.095"
     inkscape:export-ydpi="266.095" /><path
     d="m 4661.6137,8210.1704 c 127.2976,0 244.5717,-51.1025 321.7521,-125.2512 165.3866,-200.4019 78.1828,-465.9344 96.225,-702.4087 -7.0164,-53.1065 -5.0118,-109.219 -12.0282,-160.3215 -8.0187,-208.418 -21.0492,-410.8239 -33.0773,-614.2318 10.0234,-43.0864 20.0469,-97.195 58.1359,-109.2191 107.2507,0 206.4827,73.1467 297.6959,84.1688 86.2015,43.0864 186.4358,30.0603 267.6256,66.1327 160.3749,22.0442 310.7264,25.0502 473.106,30.0602 130.3046,-20.0401 239.56,-25.0502 366.8575,-53.1065 259.6069,-87.1748 522.2208,-158.3175 674.5769,-386.7756 38.0891,-97.1949 94.2203,-178.3577 104.2437,-290.5828 59.1383,-142.2853 -12.0281,-295.5928 -66.1546,-422.848 -198.4639,-355.7134 -595.3918,-511.0248 -1010.3619,-587.1776 -3.007,-3.006 -5.0117,-8.016 -8.0187,-16.0321 120.2812,-114.2291 206.4827,-271.5446 173.4054,-462.9284 -91.2133,-315.633 -368.8623,-434.8721 -651.5231,-542.0871 -264.6185,-84.1688 -530.2395,-117.2351 -779.8229,-213.4281 l 211.4944,-236.4742 c 282.6608,-336.6752 389.9115,-870.7463 264.6186,-1317.6425 -68.1594,-172.3456 -116.2718,-358.7194 -264.6186,-452.9083 -58.1359,-38.0764 -147.3444,-38.0764 -205.4803,-7.0141 -85.1992,50.1005 -111.2601,150.3015 -149.3492,238.4783 -58.1359,346.6953 -53.1241,688.3805 -38.089,1030.0658 -10.0234,243.4883 10.0234,480.9645 0,719.4428 -5.0117,11.0221 -10.0234,18.0362 -28.0656,23.0462 -167.3913,148.2974 -466.0895,198.3979 -699.6355,285.5727 -122.2858,38.0764 -237.5553,89.1789 -343.8037,139.2793 -186.4358,79.1588 -333.7802,214.4301 -476.1129,338.6792 -170.3984,188.3778 -343.8037,381.7657 -441.031,613.2299 -73.1711,117.2351 -137.321,267.5365 -160.3749,417.8379 -25.0586,152.3055 -17.0398,290.5828 -25.0586,442.8882 30.0703,254.5104 124.2906,465.9344 320.7498,605.2138 69.1617,36.0723 135.3163,64.1286 218.5108,74.1487 77.1804,20.0402 155.3632,3.006 229.5366,-2.0041 10.0234,-5.01 18.0422,-8.016 23.0539,-8.016 13.0304,0 25.0585,-13.0262 30.0703,-30.0603 -205.4804,-166.3336 -337.7897,-483.9706 -315.7381,-791.5875 3.007,-221.4441 77.1804,-453.9103 244.5717,-570.1434 198.4639,-138.2773 466.0895,-199.3999 718.68,-259.5205 157.3679,-28.0563 309.724,-36.0723 463.0825,-11.0221 86.2015,3.006 178.4171,13.0261 256.5999,33.0663 11.0257,107.215 11.0257,359.7214 13.0304,460.9244 10.0234,575.1534 23.0539,1148.3029 33.0773,1719.4483 0,104.209 0,205.4119 -10.0234,304.6109 0,16.0321 -15.0351,28.0562 -31.0726,33.0663 -134.314,-33.0663 -279.6538,6.0121 -368.8623,110.221 -94.2202,106.213 -86.2015,271.5446 -53.1242,414.832 51.1195,83.1668 132.3093,152.3054 231.5413,172.3456 30.0703,5.0101 56.1312,8.0161 79.1851,16.0322 z m 1186.7742,-1678.366 c 99.232,-5.01 193.4522,-3.006 298.6983,-23.0462 144.3374,-51.1025 246.5764,-125.2512 358.8388,-221.4441 106.2484,-119.2391 195.4569,-290.5827 162.3796,-480.9645 -79.1851,-241.4843 -297.6959,-379.7616 -501.1716,-470.9445 -145.3397,-66.1326 -287.6724,-122.2452 -446.0427,-157.3155 -238.5576,-77.1547 -493.1528,-117.2351 -737.7245,-138.2773 l -3.007,110.221 c 18.0422,302.6069 3.007,597.1977 54.1265,902.8106 15.0352,140.2813 68.1593,254.5104 182.4265,325.6531 132.3093,69.1386 280.656,102.205 417.977,130.2612 76.1781,10.0201 145.3398,5.0101 213.4991,23.0462 z M 5227.9375,4925.5832 c 175.4101,13.0261 391.9162,-15.0301 516.2067,-137.2753 20.0469,-20.0402 33.0774,-26.0522 43.1008,-38.0763 74.1734,-89.1789 122.2858,-221.4441 92.2156,-351.7054 -87.2039,-218.438 -275.6444,-322.647 -471.1013,-419.842 -137.321,-40.0803 -267.6256,-79.1587 -404.9466,-122.2451 -28.0656,-12.0241 -56.1312,-23.0462 -80.1875,-20.0402 l 65.1523,1061.1281 c 48.1125,15.0301 155.3632,18.0361 239.56,28.0562 z m -1811.2339,-13.0261 246.5764,-38.0764 c 267.6256,-73.1467 555.298,-61.1225 829.94,-43.0864 86.2015,5.0101 188.4405,28.0563 269.6303,33.0663 18.0422,-295.5928 -15.0351,-621.2459 -5.0117,-925.8567 v -56.1126 c -15.0351,-31.0623 -56.1312,12.0241 -79.1851,17.0342 -63.1476,36.0723 -114.2671,77.1547 -185.4335,107.215 -168.3936,79.1588 -330.7732,158.3175 -494.1551,246.4943 -170.3983,110.2211 -322.7545,227.4562 -438.0239,392.7878 -78.1828,71.1426 -119.2789,160.3215 -165.3867,243.4883 -2.0046,8.0161 3.0071,16.0321 10.0235,23.0462 z M 4918.2135,3520.7659 c 29.068,-18.0362 37.0867,-58.1166 65.1523,-84.1688 15.0352,-35.0703 33.0773,-56.1125 51.1195,-86.1728 83.1945,-165.3316 116.2718,-366.7355 139.3257,-547.0972 -2.0047,-186.3738 -23.0539,-397.7978 -99.232,-559.1213 l -48.1124,-40.0804 c -33.0773,0 -53.1242,33.0663 -69.1617,56.1125 -95.2226,222.4462 -90.2109,458.9204 -84.1968,682.3685 15.0351,196.3939 12.0281,392.7877 38.089,581.1655 z"
     id="path59"
     style="fill:#1b1918;stroke:none;stroke-width:28.2834"
     inkscape:connector-curvature="0"
     sodipodi:nodetypes="cccccccccccccccccccccccccccccccccccscccccccccccccccccccccccccccccccccccccccccccccccccccccccccc" /><path
     d="m 5024.088,9179.8944 c 64.15,-18.0362 127.2976,-46.0925 153.3585,-102.205 38.0891,-91.1829 -3.007,-180.3617 -44.1031,-241.4843 -48.1124,-53.1065 -96.2249,-96.1929 -121.2835,-150.3014 l 12.0281,-61.1226 c 0,-7.0141 -5.0117,-12.0241 -15.0351,-17.0342 -20.0469,7.0141 -41.0961,17.0342 -48.1125,40.0804 -13.0304,76.1527 43.1008,127.2552 68.1593,188.3778 -25.0585,41.0824 -81.1897,38.0764 -89.2085,102.205 26.0609,68.1366 -16.0375,117.2351 -6.0141,178.3577 z"
     id="path61"
     style="fill:none;stroke:none;stroke-width:28.2834"
     inkscape:connector-curvature="0" /><path
     d="M 5024.088,9179.8944 Z"
     id="path63"
     style="fill:none;stroke:none;stroke-width:28.2834"
     inkscape:connector-curvature="0" /><path
     d="m 4748.4437,9136.808 c 5.0117,-3.0061 10.0234,-5.0101 15.0351,-10.0201 5.0117,-8.0161 21.0492,-28.0563 13.0305,-46.0925 -5.0117,0 -13.0305,0 -20.0469,-3.006 l -16.0375,-30.0603 21.0492,-150.3014 c 5.0118,-10.0201 15.0352,-25.0503 33.0774,-30.0603 5.0117,0 15.0351,0 23.0538,-8.0161 l -13.0304,-28.0562 c -31.0726,-13.0262 -54.1265,10.0201 -71.1664,26.0522 l -66.1546,-13.0261 c -16.0375,10.0201 -28.0656,30.0603 -21.0492,53.1065 l 38.089,-2.004 c 31.0727,56.1125 6.0141,127.2552 -7.0164,190.3818 10.0234,31.0623 35.082,36.0723 61.1429,51.1025 z"
     id="path65"
     style="fill:none;stroke:none;stroke-width:28.2834"
     inkscape:connector-curvature="0" /><path
     d="M 4748.4437,9136.808 Z"
     id="path67"
     style="fill:none;stroke:none;stroke-width:28.2834"
     inkscape:connector-curvature="0" /><path
     d="m 5047.1419,9113.7617 c 41.0961,-25.0502 71.1664,-79.1587 64.15,-137.2753 -8.0188,-33.0663 -21.0492,-64.1286 -31.0727,-76.1527 -10.0234,-3.006 -15.0351,-13.0261 -33.0773,-13.0261 -13.0304,10.0201 -38.089,18.0362 -46.1078,43.0864 l -2.0046,150.3014 c 5.0117,13.0261 20.0468,28.0563 38.089,33.0663 z"
     id="path69"
     style="fill:none;stroke:none;stroke-width:28.2834"
     inkscape:connector-curvature="0" /><path
     d="M 5047.1419,9113.7617 Z"
     id="path71"
     style="fill:none;stroke:none;stroke-width:28.2834"
     inkscape:connector-curvature="0" /><path
     d="m 5382.9269,9103.7416 c 31.0726,0 54.1265,-13.0261 69.1616,-31.0623 5.0117,-10.02 10.0235,-17.0341 10.0235,-17.0341 v -23.0462 c -23.0539,-23.0463 -25.0586,30.0603 -56.1313,30.0603 -15.0351,-2.0041 -30.0702,-20.0402 -40.0937,-38.0764 l 127.2976,-117.2351 -102.239,-117.2351 -30.0703,13.0261 c -56.1312,41.0824 -87.2038,117.2351 -74.1734,201.4039 13.0305,20.0402 18.0422,25.0502 23.0539,43.0864 z"
     id="path73"
     style="fill:none;stroke:none;stroke-width:28.2834"
     inkscape:connector-curvature="0" /><path
     d="M 5382.9269,9103.7416 Z"
     id="path75"
     style="fill:none;stroke:none;stroke-width:28.2834"
     inkscape:connector-curvature="0" /><path
     d="m 4325.4549,9093.7215 c 56.1312,0 92.2156,-51.1024 132.3093,-84.1688 26.0609,-33.0663 23.0539,-81.1627 33.0773,-117.2351 3.007,-13.0261 8.0187,-13.0261 18.0422,-25.0502 5.0117,0 13.0304,-5.01 23.0539,-5.01 8.0187,-5.0101 10.0234,-21.0422 5.0117,-31.0623 l -28.0656,-13.0262 -119.2789,33.0663 c -5.0117,6.0121 -10.0234,18.0362 -5.0117,28.0563 l 35.082,3.006 c 16.0375,15.0302 16.0375,46.0925 16.0375,71.1427 l -94.2202,97.1949 c -46.1078,-8.016 -46.1078,-72.1446 -72.1687,-105.211 -2.0047,-50.1004 0,-94.1889 13.0304,-139.2793 -2.0047,-8.0161 -13.0304,-13.0261 -20.0468,-26.0522 l -64.15,18.0361 -12.0281,31.0623 c 2.0047,12.0242 38.089,2.0041 50.1172,22.0442 l -20.0469,102.205 102.239,140.2813 z"
     id="path77"
     style="fill:none;stroke:none;stroke-width:28.2834"
     inkscape:connector-curvature="0" /><path
     d="M 4325.4549,9093.7215 Z"
     id="path79"
     style="fill:none;stroke:none;stroke-width:28.2834"
     inkscape:connector-curvature="0" /><path
     d="m 5360.8753,8953.4402 53.1242,-38.0763 c 2.0047,-18.0362 0,-41.0824 -15.0352,-56.1126 -3.007,-5.01 -13.0304,-5.01 -23.0538,-2.004 -3.0071,2.004 -5.0118,5.0101 -10.0235,10.0201 l -16.0375,86.1728 z"
     id="path81"
     style="fill:none;stroke:none;stroke-width:28.2834"
     inkscape:connector-curvature="0" /><path
     d="M 5360.8753,8953.4402 Z"
     id="path83"
     style="fill:none;stroke:none;stroke-width:28.2834"
     inkscape:connector-curvature="0" /><path
     d="m 6266.9935,8857.2473 58.1359,-44.0884 31.0726,-7.0141 c 20.0469,-18.0362 45.1054,-46.0924 38.089,-79.1587 -3.007,-28.0563 -15.0351,-43.0864 -26.0609,-56.1126 -28.0656,-35.0703 -81.1898,8.0161 -122.2858,-2.004 -15.0352,-11.0221 -10.0235,-39.0784 0,-51.1025 l 64.1499,-31.0623 c 5.0117,-5.01 15.0352,-10.0201 20.0469,-25.0502 0,-5.01 0,-10.0201 -5.0117,-13.0261 l -104.2437,43.0864 c -8.0188,16.0321 -25.0586,38.0763 -23.0539,64.1286 8.0187,20.0402 31.0726,43.0864 54.1265,53.1065 l 58.1359,-7.0141 c 20.0469,15.0302 41.0961,40.0804 38.0891,68.1367 l -63.1477,18.0361 -36.0843,48.0965 c 0,8.0161 0,18.0362 15.0351,21.0422 z"
     id="path85"
     style="fill:none;stroke:none;stroke-width:28.2834"
     inkscape:connector-curvature="0" /><path
     d="M 6266.9935,8857.2473 Z"
     id="path87"
     style="fill:none;stroke:none;stroke-width:28.2834"
     inkscape:connector-curvature="0" /><path
     d="m 4730.4015,8813.1589 33.0773,-23.0462 v -25.0503 c -2.0047,-13.0261 -18.0422,-18.0361 -33.0773,-23.0462 -13.0305,3.006 -25.0586,15.0302 -30.0703,31.0623 0,17.0342 10.0234,30.0603 28.0656,40.0804 z"
     id="path89"
     style="fill:none;stroke:none;stroke-width:28.2834"
     inkscape:connector-curvature="0" /><path
     d="M 4730.4015,8813.1589 Z"
     id="path91"
     style="fill:none;stroke:none;stroke-width:28.2834"
     inkscape:connector-curvature="0" /><path
     d="m 3343.1586,8788.1086 35.0821,-15.0301 c 6.014,-13.0261 -12.0282,-13.0261 -17.0399,-23.0462 l 2.0047,-64.1286 c 31.0726,-33.0663 46.1078,-94.1889 99.232,-104.209 10.0234,-2.004 18.0422,-2.004 23.0539,-5.0101 3.007,-2.004 5.0117,-7.014 8.0187,-15.0301 -5.0117,-13.0261 -15.0351,-15.0301 -31.0726,-26.0522 l -33.0773,11.0221 c -23.0539,-8.0161 -45.1055,-23.0463 -79.1851,-18.0362 -5.0118,5.01 -12.0282,7.0141 -10.0235,18.0362 0,5.01 10.0235,7.014 18.0422,10.0201 18.0422,13.0261 18.0422,46.0924 3.007,66.1326 -18.0422,33.0663 -28.0656,63.1266 -59.1382,79.1587 -15.0352,20.0402 -2.0047,53.1065 10.0234,71.1427 8.0188,5.0101 21.0492,15.0301 31.0726,15.0301 z"
     id="path93"
     style="fill:none;stroke:none;stroke-width:28.2834"
     inkscape:connector-curvature="0" /><path
     d="M 3343.1586,8788.1086 Z"
     id="path95"
     style="fill:none;stroke:none;stroke-width:28.2834"
     inkscape:connector-curvature="0" /><path
     d="m 6579.7245,8729.9921 c 5.0117,0 15.0352,-3.006 18.0422,-11.0221 10.0234,-15.0301 3.007,-30.0603 8.0187,-48.0965 -8.0187,-28.0562 -26.0609,-2.004 -41.096,0 -23.0539,0 -38.0891,-18.0361 -46.1078,-38.0763 -63.1476,-109.2191 -81.1898,-229.4602 -66.1547,-351.7054 -25.0585,23.0463 -40.0937,77.1548 -40.0937,115.2311 -11.0258,25.0503 -51.1195,18.0362 -79.1851,25.0503 -3.007,5.01 -10.0234,13.0261 -5.0117,20.0402 l 45.1054,8.016 c 64.15,64.1286 105.2461,160.3216 120.2812,254.5105 z"
     id="path97"
     style="fill:none;stroke:none;stroke-width:28.2834"
     inkscape:connector-curvature="0" /><path
     d="M 6579.7245,8729.9921 Z"
     id="path99"
     style="fill:none;stroke:none;stroke-width:28.2834"
     inkscape:connector-curvature="0" /><path
     d="m 3040.451,8678.8896 c 61.143,-10.0201 127.2976,-13.0261 160.3749,-61.1226 96.225,-130.2612 -33.0773,-305.6129 56.1312,-424.852 0,0 0,-11.0221 -6.014,-16.0321 -12.0281,-15.0302 -40.0937,-2.0041 -53.1242,13.0261 -41.0961,51.1025 -53.1242,112.225 -41.0961,168.3376 0,15.0301 -15.0351,28.0562 -30.0703,30.0603 l -71.1663,15.0301 -114.2671,143.2874 c 0,50.1004 43.1007,86.1728 73.171,122.2451 13.0305,7.0141 13.0305,10.0201 26.0609,10.0201 z"
     id="path101"
     style="fill:none;stroke:none;stroke-width:28.2834"
     inkscape:connector-curvature="0" /><path
     d="M 3040.451,8678.8896 Z"
     id="path103"
     style="fill:none;stroke:none;stroke-width:28.2834"
     inkscape:connector-curvature="0" /><path
     d="m 3040.451,8622.7771 101.2367,-46.0925 c 28.0656,-41.0823 26.0609,-89.1788 26.0609,-140.2813 -11.0258,-30.0603 -44.1031,-10.0201 -64.15,-10.0201 -43.1007,23.0462 -56.1312,74.1487 -89.2085,102.205 -15.0351,38.0763 3.007,61.1226 13.0305,94.1889 z"
     id="path105"
     style="fill:none;stroke:none;stroke-width:28.2834"
     inkscape:connector-curvature="0" /><path
     d="M 3040.451,8622.7771 Z"
     id="path107"
     style="fill:none;stroke:none;stroke-width:28.2834"
     inkscape:connector-curvature="0" /><path
     d="m 6722.0572,8622.7771 59.1383,-15.0302 c 13.0304,-13.0261 5.0117,-36.0723 5.0117,-54.1085 -15.0351,-25.0502 -33.0773,8.0161 -53.1242,0 -28.0656,-51.1025 -82.1921,-106.213 -54.1265,-180.3617 8.0187,-10.0201 8.0187,-18.0362 5.0117,-23.0462 h -15.0351 c -25.0586,5.01 -38.0891,33.0663 -48.1125,56.1125 -8.0188,8.0161 -23.0539,13.0262 -41.0961,15.0302 -10.0234,5.01 -5.0117,26.0522 -5.0117,38.0763 13.0305,16.0322 23.0539,-7.014 38.089,-10.0201 69.1617,36.0724 56.1313,125.2512 107.2508,173.3477 z"
     id="path109"
     style="fill:none;stroke:none;stroke-width:28.2834"
     inkscape:connector-curvature="0" /><path
     d="M 6722.0572,8622.7771 Z"
     id="path111"
     style="fill:none;stroke:none;stroke-width:28.2834"
     inkscape:connector-curvature="0" /><path
     d="m 4667.2539,8546.6244 c 127.2976,0 244.5717,-51.1025 321.7521,-125.2512 165.3866,-200.4019 78.1828,-465.9344 96.225,-702.4087 -7.0164,-53.1065 -5.0118,-109.219 -12.0282,-160.3215 -8.0187,-208.418 -21.0492,-410.8239 -33.0773,-614.2318 10.0234,-43.0864 20.0469,-97.195 58.1359,-109.2191 107.2507,0 206.4827,73.1467 297.6959,84.1688 86.2015,43.0864 186.4358,30.0603 267.6256,66.1327 160.3749,22.0442 310.7264,25.0502 473.106,30.0602 130.3046,-20.0401 239.56,-25.0502 366.8575,-53.1065 259.6069,-87.1748 522.2208,-158.3175 674.5769,-386.7756 38.0891,-97.1949 94.2203,-178.3577 104.2437,-290.5828 59.1383,-142.2853 -12.0281,-295.5928 -66.1546,-422.848 -198.4639,-355.7134 -595.3918,-511.0248 -1010.3619,-587.1776 -3.007,-3.006 -5.0117,-8.016 -8.0187,-16.0321 120.2812,-114.2291 206.4827,-271.5446 173.4054,-462.9284 -91.2133,-315.633 -368.8623,-434.8721 -651.5231,-542.0871 -264.6185,-84.1688 -530.2395,-117.2351 -779.8229,-213.4281 l 211.4944,-236.4742 c 282.6608,-336.6752 389.9115,-870.7463 264.6186,-1317.6425 -68.1594,-172.3456 -116.2718,-358.7194 -264.6186,-452.9083 -58.1359,-38.0764 -147.3444,-38.0764 -205.4803,-7.0141 -85.1992,50.1005 -111.2601,150.3015 -149.3492,238.4783 -58.1359,346.6953 -53.1241,688.3805 -38.089,1030.0658 -10.0234,243.4883 10.0234,480.9645 0,719.4428 -5.0117,11.0221 -10.0234,18.0362 -28.0656,23.0462 -167.3913,148.2974 -466.0895,198.3979 -699.6355,285.5727 -122.2858,38.0764 -237.5553,89.1789 -343.8037,139.2793 -186.4358,79.1588 -333.7802,214.4301 -476.1129,338.6792 -170.3984,188.3778 -343.8037,381.7657 -441.031,613.2299 -73.1711,117.2351 -137.321,267.5365 -160.3749,417.8379 -25.0586,152.3055 -17.0398,290.5828 -25.0586,442.8882 30.0703,254.5104 124.2906,465.9344 320.7498,605.2138 69.1617,36.0723 135.3163,64.1286 218.5108,74.1487 77.1804,20.0402 155.3632,3.006 229.5366,-2.0041 10.0234,-5.01 18.0422,-8.016 23.0539,-8.016 13.0304,0 25.0585,-13.0262 30.0703,-30.0603 -205.4804,-166.3336 -337.7897,-483.9706 -315.7381,-791.5875 3.007,-221.4441 77.1804,-453.9103 244.5717,-570.1434 198.4639,-138.2773 466.0895,-199.3999 718.68,-259.5205 157.3679,-28.0563 309.724,-36.0723 463.0825,-11.0221 86.2015,3.006 178.4171,13.0261 256.5999,33.0663 11.0257,107.215 11.0257,359.7214 13.0304,460.9244 10.0234,575.1534 23.0539,1148.3029 33.0773,1719.4483 0,104.209 0,205.4119 -10.0234,304.6109 0,16.0321 -15.0351,28.0562 -31.0726,33.0663 -134.314,-33.0663 -279.6538,6.0121 -368.8623,110.221 -94.2202,106.213 -86.2015,271.5446 -53.1242,414.832 51.1195,83.1668 132.3093,152.3054 231.5413,172.3456 30.0703,5.0101 56.1312,8.0161 79.1851,16.0322 z"
     id="path113"
     style="fill:none;stroke:none;stroke-width:28.2834"
     inkscape:connector-curvature="0" /><path
     d="M 4667.2539,8546.6244 Z"
     id="path115"
     style="fill:none;stroke:none;stroke-width:28.2834"
     inkscape:connector-curvature="0" /><path
     d="m 2777.8371,8513.558 h 23.0539 c 5.0117,0 13.0305,-3.006 15.0352,-13.0261 -2.0047,-10.0201 -8.0188,-10.0201 -13.0305,-18.0361 -5.0117,-63.1266 56.1312,-101.203 92.2156,-145.2914 23.0539,-25.0503 51.1195,-15.0302 71.1663,-20.0402 5.0118,-10.0201 0,-23.0462 -5.0117,-30.0603 l -104.2437,-28.0563 -26.0609,20.0402 16.0375,23.0462 c 0,5.0101 2.0047,10.0201 2.0047,15.0302 l -71.1664,89.1788 -79.1851,-10.0201 -23.0539,-41.0824 69.1617,-99.1989 38.0891,-23.0462 c 13.0304,-18.0362 10.0234,-43.0864 5.0117,-63.1266 -7.0164,-10.0201 -15.0352,-26.0523 -35.082,-31.0623 l -46.1078,23.0462 c 2.0047,13.0261 23.0539,13.0261 25.0586,31.0623 -33.0774,48.0965 -76.1781,106.213 -129.3023,132.2653 l 23.0539,109.219 104.2437,28.0563 c 12.0281,18.0361 15.0351,48.0964 48.1124,51.1024 z"
     id="path117"
     style="fill:none;stroke:none;stroke-width:28.2834"
     inkscape:connector-curvature="0" /><path
     d="M 2777.8371,8513.558 Z"
     id="path119"
     style="fill:none;stroke:none;stroke-width:28.2834"
     inkscape:connector-curvature="0" /><path
     d="m 3439.3836,8513.558 31.0726,-23.0462 -8.0187,-31.0623 c -7.0164,-2.004 -15.0352,-12.0241 -30.0703,-12.0241 -10.0234,5.0101 -23.0539,12.0241 -26.0609,28.0563 0,15.0301 13.0304,27.0542 28.0656,38.0763 z"
     id="path121"
     style="fill:none;stroke:none;stroke-width:28.2834"
     inkscape:connector-curvature="0" /><path
     d="M 3439.3836,8513.558 Z"
     id="path123"
     style="fill:none;stroke:none;stroke-width:28.2834"
     inkscape:connector-curvature="0" /><path
     d="m 6938.5633,8490.5118 c 36.0844,0 89.2086,-5.01 110.2578,-38.0763 17.0398,-79.1588 17.0398,-165.3316 -33.0773,-216.4341 -74.1734,-82.1648 -229.5366,-54.1085 -282.6608,-142.2853 -13.0304,-31.0623 0,-54.1085 -16.0375,-72.1447 -2.0047,0 -12.0281,-5.0101 -17.0398,-5.0101 -28.0656,26.0523 -26.0609,69.1387 -11.0258,107.2151 33.0773,48.0964 87.2039,81.1627 130.3046,102.2049 l -30.0703,99.199 60.1406,89.1788 21.0492,53.1065 z"
     id="path125"
     style="fill:none;stroke:none;stroke-width:28.2834"
     inkscape:connector-curvature="0" /><path
     d="M 6938.5633,8490.5118 Z"
     id="path127"
     style="fill:none;stroke:none;stroke-width:28.2834"
     inkscape:connector-curvature="0" /><path
     d="m 6979.6594,8436.4033 c 5.0117,0 15.0352,-2.004 20.0469,-7.0141 10.0234,-46.0924 3.007,-107.215 -28.0656,-140.2813 -38.0891,-20.0402 -68.1594,-43.0864 -111.2601,-43.0864 l -26.0609,56.1125 82.1921,119.2392 z"
     id="path129"
     style="fill:none;stroke:none;stroke-width:28.2834"
     inkscape:connector-curvature="0" /><path
     d="M 6979.6594,8436.4033 Z"
     id="path131"
     style="fill:none;stroke:none;stroke-width:28.2834"
     inkscape:connector-curvature="0" /><path
     d="m 6587.7433,8370.2707 7.0164,-2.004 c 3.007,-3.0061 6.014,-5.0101 13.0304,-10.0201 v -16.0322 c 0,-5.01 0,-10.0201 -7.0164,-17.0341 -6.014,-3.0061 -16.0375,-13.0262 -28.0656,-13.0262 -13.0304,8.0161 -18.0422,28.0563 -13.0304,46.0925 l 23.0538,15.0301 z"
     id="path133"
     style="fill:none;stroke:none;stroke-width:28.2834"
     inkscape:connector-curvature="0" /><path
     d="M 6587.7433,8370.2707 Z"
     id="path135"
     style="fill:none;stroke:none;stroke-width:28.2834"
     inkscape:connector-curvature="0" /><path
     d="m 7204.1843,8294.118 71.1663,-7.0141 c 7.0164,-16.0322 23.0539,-26.0522 33.0774,-46.0924 l 2.0046,-38.0764 c 0,0 -2.0046,-8.0161 -12.0281,-10.0201 -13.0304,5.0101 -3.007,22.0442 -8.0187,33.0663 -3.0071,12.0241 -15.0352,25.0503 -31.0727,30.0603 l -55.1288,-23.0462 c -3.0071,-5.0101 -6.0141,-7.0141 -8.0188,-15.0302 l 53.1242,-150.3014 c 0,-2.004 -2.0047,-10.0201 -5.0117,-15.0301 0,-3.0061 -5.0117,-5.0101 -10.0234,-10.0201 l -102.239,-13.0261 c -38.0891,25.0502 -50.1172,81.1627 -48.1125,135.2712 3.007,45.0905 15.0351,63.1266 41.0961,91.1829 z"
     id="path137"
     style="fill:none;stroke:none;stroke-width:28.2834"
     inkscape:connector-curvature="0" /><path
     d="M 7204.1843,8294.118 Z"
     id="path139"
     style="fill:none;stroke:none;stroke-width:28.2834"
     inkscape:connector-curvature="0" /><path
     d="m 2415.9913,8264.0577 c 18.0422,0 36.0843,0 49.1148,-8.0161 l -23.0539,-56.1125 78.1828,-101.203 97.2272,-16.0321 c 10.0235,0 15.0352,-12.0242 15.0352,-22.0442 l -81.1898,-46.0925 -79.1851,-89.1788 -94.2203,20.0402 c -51.1195,54.1085 -122.2858,132.2652 -96.2249,216.434 l 89.2085,33.0663 35.0821,66.1327 c 3.007,0 5.0117,0 10.0234,3.006 z"
     id="path141"
     style="fill:none;stroke:none;stroke-width:28.2834"
     inkscape:connector-curvature="0" /><path
     d="M 2415.9913,8264.0577 Z"
     id="path143"
     style="fill:none;stroke:none;stroke-width:28.2834"
     inkscape:connector-curvature="0" /><path
     d="m 7168.0999,8166.8628 28.0656,-53.1065 c 0,-5.0101 -5.0117,-10.0201 -10.0234,-15.0302 l -31.0726,-16.0321 c -7.0164,0 -10.0235,3.006 -12.0282,11.0221 -11.0257,25.0502 5.0118,50.1004 22.0516,76.1527 z"
     id="path145"
     style="fill:none;stroke:none;stroke-width:28.2834"
     inkscape:connector-curvature="0" /><path
     d="M 7168.0999,8166.8628 Z"
     id="path147"
     style="fill:none;stroke:none;stroke-width:28.2834"
     inkscape:connector-curvature="0" /><path
     d="m 2392.9374,8151.8326 94.2202,-99.1989 -30.0703,-51.1025 c -33.0773,-15.0302 -56.1312,10.0201 -76.178,31.0623 -21.0492,25.0502 -38.0891,45.0904 -51.1195,66.1326 0,10.0201 0,15.0302 3.007,25.0503 l 55.1289,28.0562 z"
     id="path149"
     style="fill:none;stroke:none;stroke-width:28.2834"
     inkscape:connector-curvature="0" /><path
     d="M 2392.9374,8151.8326 Z"
     id="path151"
     style="fill:none;stroke:none;stroke-width:28.2834"
     inkscape:connector-curvature="0" /><path
     d="m 5854.0281,6868.2584 c 99.232,-5.01 193.4522,-3.006 298.6983,-23.0462 144.3374,-51.1025 246.5764,-125.2512 358.8388,-221.4441 106.2484,-119.2391 195.4569,-290.5827 162.3796,-480.9645 -79.1851,-241.4843 -297.6959,-379.7616 -501.1716,-470.9445 -145.3397,-66.1326 -287.6724,-122.2452 -446.0427,-157.3155 -238.5576,-77.1547 -493.1528,-117.2351 -737.7245,-138.2773 l -3.007,110.221 c 18.0422,302.6069 3.007,597.1977 54.1265,902.8106 15.0352,140.2813 68.1593,254.5104 182.4265,325.6531 132.3093,69.1386 280.656,102.205 417.977,130.2612 76.1781,10.0201 145.3398,5.0101 213.4991,23.0462 z"
     id="path153"
     style="fill:none;stroke:none;stroke-width:28.2834"
     inkscape:connector-curvature="0" /><path
     d="M 5854.0281,6868.2584 Z"
     id="path155"
     style="fill:none;stroke:none;stroke-width:28.2834"
     inkscape:connector-curvature="0" /><path
     d="m 5233.5777,5262.0372 c 175.4101,13.0261 391.9162,-15.0301 516.2067,-137.2753 20.0469,-20.0402 33.0774,-26.0522 43.1008,-38.0763 74.1734,-89.1789 122.2858,-221.4441 92.2156,-351.7054 -87.2039,-218.438 -275.6444,-322.647 -471.1013,-419.842 -137.321,-40.0803 -267.6256,-79.1587 -404.9466,-122.2451 -28.0656,-12.0241 -56.1312,-23.0462 -80.1875,-20.0402 l 65.1523,1061.1281 c 48.1125,15.0301 155.3632,18.0361 239.56,28.0562 z"
     id="path157"
     style="fill:none;stroke:none;stroke-width:28.2834"
     inkscape:connector-curvature="0" /><path
     d="M 5233.5777,5262.0372 Z"
     id="path159"
     style="fill:none;stroke:none;stroke-width:28.2834"
     inkscape:connector-curvature="0" /><path
     d="m 3422.3438,5249.0111 246.5764,-38.0764 c 267.6256,-73.1467 555.298,-61.1225 829.94,-43.0864 86.2015,5.0101 188.4405,28.0563 269.6303,33.0663 18.0422,-295.5928 -15.0351,-621.2459 -5.0117,-925.8567 v -56.1126 c -15.0351,-31.0623 -56.1312,12.0241 -79.1851,17.0342 -63.1476,36.0723 -114.2671,77.1547 -185.4335,107.215 -168.3936,79.1588 -330.7732,158.3175 -494.1551,246.4943 -170.3983,110.2211 -322.7545,227.4562 -438.0239,392.7878 -78.1828,71.1426 -119.2789,160.3215 -165.3867,243.4883 -2.0046,8.0161 3.0071,16.0321 10.0235,23.0462 z"
     id="path161"
     style="fill:none;stroke:none;stroke-width:28.2834"
     inkscape:connector-curvature="0" /><path
     d="M 3422.3438,5249.0111 Z"
     id="path163"
     style="fill:none;stroke:none;stroke-width:28.2834"
     inkscape:connector-curvature="0" /><path
     d="m 4923.8537,3857.2199 c 29.068,-18.0362 37.0867,-58.1166 65.1523,-84.1688 15.0352,-35.0703 33.0773,-56.1125 51.1195,-86.1728 83.1945,-165.3316 116.2718,-366.7355 139.3257,-547.0972 -2.0047,-186.3738 -23.0539,-397.7978 -99.232,-559.1213 l -48.1124,-40.0804 c -33.0773,0 -53.1242,33.0663 -69.1617,56.1125 -95.2226,222.4462 -90.2109,458.9204 -84.1968,682.3685 15.0351,196.3939 12.0281,392.7877 38.089,581.1655 z"
     id="path165"
     style="fill:none;stroke:none;stroke-width:28.2834"
     inkscape:connector-curvature="0" /><path
     d="M 4923.8537,3857.2199 Z"
     id="path167"
     style="fill:none;stroke:none;stroke-width:28.2834"
     inkscape:connector-curvature="0" /><path
     d="m 2465.1061,2626.7522 h 12.0281 c 46.1078,-84.1688 10.0234,-198.3978 59.1383,-272.5466 78.1827,-43.0864 170.3983,8.0161 216.5061,-76.1527 l 63.1476,46.0925 86.2015,-8.0161 c 23.0539,-7.0141 23.0539,-43.0864 39.0914,-63.1266 l -6.0141,-48.0965 c 0,-11.0221 -12.0281,-13.0261 -22.0515,-13.0261 -13.0305,18.0362 -28.0656,28.0563 -49.1149,40.0804 l -40.0937,-10.0201 c -112.2624,-127.2552 -216.5061,-279.5607 -333.7802,-416.836 -38.0891,-76.1527 -13.0305,-150.3014 -3.0071,-219.44 0,-2.0041 -7.0164,-7.0141 -15.0351,-10.0201 -15.0352,8.016 -30.0703,23.0462 -38.089,41.0824 l -41.0961,117.2351 -124.2906,33.0663 c -3.007,7.014 -3.007,12.0241 0,22.0442 33.0774,11.0221 89.2086,-5.0101 117.2742,26.0522 71.1663,76.1528 122.2858,160.3216 178.4171,223.4482 30.0703,77.1547 129.3022,120.2411 114.2671,204.4099 -10.0235,20.0402 -25.0586,28.0563 -31.0727,38.0764 l -111.26,-5.0101 c -28.0657,-120.2411 -3.0071,-280.5627 -112.2625,-366.7355 -56.1312,-36.0723 -147.3444,-76.1527 -213.4991,-46.0924 -18.0421,5.01 -28.0656,18.0362 -41.096,18.0362 -41.0961,35.0703 -76.1781,109.219 -58.1359,170.3416 30.0703,150.3014 203.4756,173.3476 248.5811,302.6068 -2.0047,21.0422 -17.0399,41.0824 -5.0117,51.1025 5.0117,3.0061 16.0374,3.0061 23.0538,0 38.0891,-53.1065 21.0492,-134.2692 -20.0468,-178.3577 -66.1547,-83.1667 -175.4101,-129.2592 -170.3983,-228.4581 15.0351,-36.0724 33.0773,-56.1126 71.1663,-66.1326 48.1125,5.01 89.2086,53.1065 112.2624,91.1828 106.2484,181.3637 83.1945,401.8058 83.1945,603.2097 z"
     id="path169"
     style="fill:none;stroke:none;stroke-width:28.2834"
     inkscape:connector-curvature="0" /><path
     d="M 2465.1061,2626.7522 Z"
     id="path171"
     style="fill:none;stroke:none;stroke-width:28.2834"
     inkscape:connector-curvature="0" /><path
     d="m 7275.3506,2586.6719 c 15.0352,0 35.082,2.004 48.1125,-6.0121 2.0047,-2.004 5.0117,-7.0141 5.0117,-15.0301 -3.007,-2.0041 -8.0187,-10.0201 -15.0351,-13.0262 l -28.0656,-43.0864 c 15.0351,-71.1427 109.2554,-111.223 140.328,-170.3416 53.1242,-38.0764 86.2015,-99.1989 137.321,-124.2492 l 104.2437,58.1166 28.0656,-15.0302 c 12.0281,-46.0924 -54.1265,-66.1326 -69.1617,-109.219 l 247.5788,-313.629 c 0,-7.014 -3.0071,-18.0361 -8.0188,-23.0462 -31.0726,-20.0402 -76.1781,0 -104.2437,18.0362 -120.2811,66.1326 -247.5787,130.2612 -384.8997,145.2914 -12.0281,5.01 -25.0586,18.0361 -30.0703,33.0663 0,20.0402 15.0351,33.0663 30.0703,46.0924 36.0843,0 38.089,40.0804 71.1663,58.1166 8.0188,15.0301 23.0539,20.0402 26.061,36.0723 l -186.4359,221.4441 -89.2085,45.0904 11.0258,135.2713 c 5.0117,10.0201 15.0351,25.0502 35.082,30.0603 z"
     id="path173"
     style="fill:none;stroke:none;stroke-width:28.2834"
     inkscape:connector-curvature="0" /><path
     d="M 7275.3506,2586.6719 Z"
     id="path175"
     style="fill:none;stroke:none;stroke-width:28.2834"
     inkscape:connector-curvature="0" /><path
     d="m 3320.1048,2377.2519 c 0,0 10.0234,0 15.0351,-2.0041 3.007,0 5.0117,-5.01 8.0187,-13.0261 0,-8.0161 -3.007,-18.0361 -8.0187,-23.0462 l -104.2437,-56.1125 -23.0539,-23.0462 c -56.1312,-86.1729 0,-205.412 49.1148,-279.5607 63.1477,-15.0301 121.2836,63.1266 190.4452,28.0563 l 23.0539,-79.1588 -23.0539,-43.0864 c -5.0117,-3.006 -13.0304,-3.006 -18.0421,0 l -40.0938,58.1166 c -66.1546,-28.0563 -132.3093,-78.1568 -163.3819,-147.2954 -18.0422,-61.1226 -43.1007,-124.2492 -8.0187,-173.3477 13.0304,-15.0301 16.0375,-17.0341 28.0656,-22.0442 41.096,2.004 87.2038,5.0101 112.2624,-23.0462 l 20.0469,-87.1748 c 0,-2.004 -5.0118,-5.0101 -12.0282,-7.0141 l -64.1499,38.0764 c -40.0937,-13.0262 -96.225,-15.0302 -134.314,15.0301 -23.0539,48.0965 -49.1148,81.1628 -72.1687,117.2351 -68.1593,18.0362 -177.4147,-23.0462 -228.5342,41.0824 -18.0422,20.0402 -15.0352,48.0965 -36.0844,63.1266 l 18.0422,53.1065 c 48.1125,3.006 66.1546,-96.1929 135.3163,-76.1527 71.1664,28.0563 129.3023,46.0924 167.3913,109.219 28.0656,56.1126 3.007,105.211 -2.0047,155.3115 -36.0843,89.1788 -76.178,191.3838 -26.0609,272.5466 56.1312,56.1125 117.2742,86.1728 196.4593,104.209 z"
     id="path177"
     style="fill:none;stroke:none;stroke-width:28.2834"
     inkscape:connector-curvature="0" /><path
     d="M 3320.1048,2377.2519 Z"
     id="path179"
     style="fill:none;stroke:none;stroke-width:28.2834"
     inkscape:connector-curvature="0" /><path
     d="m 6867.397,2283.063 102.239,-23.0462 c 7.0164,-7.0141 13.0304,-25.0503 7.0164,-38.0764 -43.1008,-7.0141 -106.2484,13.0261 -124.2906,-40.0804 0,-26.0522 -3.007,-59.1185 15.0352,-79.1587 87.2038,-41.0824 216.5061,41.0824 305.7146,-26.0523 l -30.0703,-246.4943 c -28.0656,-28.0563 -61.1429,-8.0161 -102.239,-8.0161 -91.2132,21.0422 -150.3514,67.1346 -203.4756,125.2512 -51.1195,69.1386 -79.1851,178.3577 -41.0961,272.5466 l 66.1547,63.1266 z"
     id="path181"
     style="fill:none;stroke:none;stroke-width:28.2834"
     inkscape:connector-curvature="0" /><path
     d="M 6867.397,2283.063 Z"
     id="path183"
     style="fill:none;stroke:none;stroke-width:28.2834"
     inkscape:connector-curvature="0" /><path
     d="m 7563.0231,2064.6249 c 5.0117,-3.006 10.0234,-3.006 15.0351,-8.0161 2.0047,-7.014 10.0235,-20.0402 5.0118,-30.0603 l -51.1195,12.0242 c 0,3.006 0,11.0221 5.0117,18.0361 3.007,3.0061 3.007,5.0101 16.0375,10.0201 z"
     id="path185"
     style="fill:none;stroke:none;stroke-width:28.2834"
     inkscape:connector-curvature="0" /><path
     d="M 7563.0231,2064.6249 Z"
     id="path187"
     style="fill:none;stroke:none;stroke-width:28.2834"
     inkscape:connector-curvature="0" /><path
     d="m 6938.5633,2038.5727 97.2273,-10.0201 23.0539,-129.2593 c -31.0726,-18.0361 -59.1382,23.0463 -87.2038,48.0965 -17.0399,30.0603 -48.1125,51.1025 -43.1008,91.1829 z"
     id="path189"
     style="fill:none;stroke:none;stroke-width:28.2834"
     inkscape:connector-curvature="0" /><path
     d="M 6938.5633,2038.5727 Z"
     id="path191"
     style="fill:none;stroke:none;stroke-width:28.2834"
     inkscape:connector-curvature="0" /><path
     d="m 6412.3332,2031.5586 c 121.2835,2.004 246.5764,-54.1085 317.7428,-140.2813 119.2788,-140.2814 66.1546,-348.6993 8.0187,-517.0369 -31.0726,-60.1206 -66.1546,-134.2693 -21.0492,-195.3919 l 59.1383,-33.0663 c -5.0117,-23.0462 -28.0656,-38.0764 -54.1266,-36.0723 -58.1359,10.02 -104.2436,38.0763 -132.3093,84.1687 -25.0585,97.195 -2.0046,180.3618 31.0727,274.5507 0,3.006 -3.007,11.0221 -8.0188,16.0321 l -175.41,53.1065 c -43.1008,61.1226 -69.1617,137.2753 -109.2554,206.414 -8.0187,33.0663 -28.0656,48.0964 -48.1125,61.1225 -23.0539,56.1126 38.0891,91.1829 48.1125,150.3015 33.0773,33.0663 38.089,73.1467 84.1968,76.1527 z"
     id="path193"
     style="fill:none;stroke:none;stroke-width:28.2834"
     inkscape:connector-curvature="0" /><path
     d="M 6412.3332,2031.5586 Z"
     id="path195"
     style="fill:none;stroke:none;stroke-width:28.2834"
     inkscape:connector-curvature="0" /><path
     d="m 6467.4621,1944.3838 c 74.1734,3.006 140.328,-40.0804 188.4405,-101.203 41.0961,-51.1025 54.1265,-125.2512 33.0773,-188.3778 -20.0468,-31.0623 -17.0398,-79.1587 -45.1054,-92.1849 l -112.2624,31.0623 c -43.1008,61.1226 -79.1852,142.2854 -117.2742,218.4381 -2.0047,54.1085 18.0422,102.205 48.1125,132.2653 z"
     id="path197"
     style="fill:none;stroke:none;stroke-width:28.2834"
     inkscape:connector-curvature="0" /><path
     d="M 6467.4621,1944.3838 Z"
     id="path199"
     style="fill:none;stroke:none;stroke-width:28.2834"
     inkscape:connector-curvature="0" /><path
     d="m 3735.0748,1881.2572 38.089,-3.0061 c 51.1195,-35.0703 79.1851,-83.1668 107.2508,-137.2753 l -18.0422,-23.0462 c -58.1359,5.0101 -79.1851,66.1326 -127.2976,94.1889 -38.089,-2.004 -43.1008,-43.0864 -61.1429,-71.1427 5.0117,-71.1426 94.2202,-129.2592 140.328,-172.3456 23.0539,-16.0322 43.1008,-26.0522 56.1312,-46.0924 l -13.0304,-48.0965 -208.4874,-140.2813 c -3.007,0 -13.0305,2.004 -18.0422,5.01 -97.2273,71.1427 -127.2976,223.4481 -97.2273,358.7194 36.0844,99.199 102.239,155.3115 201.471,183.3678 z"
     id="path201"
     style="fill:none;stroke:none;stroke-width:28.2834"
     inkscape:connector-curvature="0" /><path
     d="M 3735.0748,1881.2572 Z"
     id="path203"
     style="fill:none;stroke:none;stroke-width:28.2834"
     inkscape:connector-curvature="0" /><path
     d="m 6004.3796,1866.227 97.2273,-18.0361 c 7.0164,-5.0101 15.0351,-13.0262 20.0468,-28.0563 0,-5.0101 0,-10.0201 -5.0117,-13.0261 l -64.15,-18.0362 c -27.0632,-78.1567 44.1031,-165.3316 56.1313,-243.4883 3.007,-13.0261 16.0375,-23.0462 31.0726,-31.0623 l 66.1546,-23.0462 c 2.0047,-2.004 5.0118,-7.0141 7.0164,-15.0302 -55.1288,-23.0462 -114.2671,-63.1266 -152.3561,-117.2351 -56.1312,-68.1366 -135.3163,5.0101 -190.4452,-33.0663 -23.0539,-20.0402 -33.0773,-40.0804 -56.1312,-48.0965 l -104.2437,30.0603 c -11.0258,6.0121 -18.0422,16.0322 -23.0539,33.0663 0,6.0121 2.0047,13.0262 7.0164,16.0322 h 56.1312 c 13.0305,2.004 28.0656,17.0342 33.0774,33.0663 l -71.1664,241.4843 c -5.0117,18.0362 -25.0586,18.0362 -38.089,33.0663 -13.0305,53.1065 41.096,74.1487 76.178,117.2351 10.0235,10.0201 23.0539,10.0201 33.0774,15.0302 l 71.1663,-33.0663 c 8.0188,-5.0101 10.0234,-15.0302 16.0375,-30.0603 0,-5.0101 -3.007,-11.0221 -8.0187,-13.0262 l -48.1125,-3.006 c -18.0422,-5.01 -21.0492,-25.0502 -31.0726,-45.0904 l 89.2085,-244.4903 61.1429,-28.0563 86.2015,56.1125 c 13.0305,5.0101 16.0375,20.0402 23.0539,35.0704 l -76.1781,226.4541 c -5.0117,5.0101 -13.0304,8.0161 -23.0538,16.0322 -18.0422,50.1004 26.0609,86.1728 43.1007,127.2552 8.0187,5.01 13.0305,5.01 13.0305,5.01 z"
     id="path205"
     style="fill:none;stroke:none;stroke-width:28.2834"
     inkscape:connector-curvature="0" /><path
     d="M 6004.3796,1866.227 Z"
     id="path207"
     style="fill:none;stroke:none;stroke-width:28.2834"
     inkscape:connector-curvature="0" /><path
     d="m 4196.1526,1767.0281 c 28.0656,0 48.1125,-16.0322 66.1547,-33.0663 l 33.0773,-102.205 c 0,0 -3.007,-5.01 -10.0234,-8.0161 l -82.1922,36.0724 c -15.0351,-13.0262 -43.1007,-23.0463 -53.1242,-51.1025 -30.0702,-269.5406 -94.2202,-603.2097 119.2789,-806.61767 0,-3.00602 0,-8.01607 -5.0117,-13.02612 l -28.0656,3.00603 c -78.1828,66.13263 -124.2906,157.31549 -167.3913,254.51046 -3.0071,0 -8.0188,2.004 -15.0352,2.004 -36.0843,-38.0764 -74.1734,-111.22308 -143.3351,-111.22308 -10.0234,5.01004 -10.0234,17.03416 -10.0234,28.05626 48.1125,60.12062 112.2624,111.22302 125.2929,203.40792 12.0281,48.0965 15.0351,86.1728 22.0515,152.3055 v 28.0562 c -5.0117,74.1487 36.0844,221.4441 -10.0234,315.633 36.0844,46.0925 92.2156,74.1487 158.3702,102.205 z"
     id="path209"
     style="fill:none;stroke:none;stroke-width:28.2834"
     inkscape:connector-curvature="0" /><path
     d="M 4196.1526,1767.0281 Z"
     id="path211"
     style="fill:none;stroke:none;stroke-width:28.2834"
     inkscape:connector-curvature="0" /><path
     d="m 5455.0956,1722.9397 c 27.0632,-15.0302 76.178,-50.1005 73.171,-91.1829 -20.0469,-18.0362 -58.1359,15.0301 -81.1898,-10.0201 -61.1429,-89.1788 -8.0187,-203.4079 0,-295.5928 l 104.2437,-53.1065 c 5.0117,-10.0201 10.0234,-23.0462 5.0117,-33.0663 -91.2132,-23.0462 -190.4452,-23.0462 -277.649,-76.1527 -78.1828,-13.0262 -111.2601,33.0663 -167.3913,73.1467 -41.0961,107.215 -51.1195,224.4501 -36.0844,320.643 18.0422,54.1085 31.0727,87.1748 48.1125,127.2552 10.0234,18.0362 36.0843,31.0623 61.1429,23.0462 49.1148,-2.004 59.1383,-40.0804 115.2695,-38.0763 10.0234,-8.0161 17.0398,-10.0201 28.0656,-13.0262 116.2718,77.1548 94.2202,51.1025 127.2976,66.1327 z"
     id="path213"
     style="fill:none;stroke:none;stroke-width:28.2834"
     inkscape:connector-curvature="0" /><path
     d="M 5455.0956,1722.9397 Z"
     id="path215"
     style="fill:none;stroke:none;stroke-width:28.2834"
     inkscape:connector-curvature="0" /><path
     d="m 4684.2937,1697.8894 c 102.239,-51.1025 173.4054,-157.3155 224.5249,-244.4903 -23.0539,-117.2351 -99.232,-185.3717 -152.3562,-279.5606 -64.1499,-21.0422 -99.2319,43.0864 -143.335,66.1326 -5.0118,0 -12.0282,0 -15.0352,-8.0161 -28.0656,-104.209 15.0352,-221.4441 64.15,-312.62695 35.082,-74.14871 81.1898,-132.26526 124.2905,-196.39387 -2.0047,-2.00402 -5.0117,-5.01004 -8.0187,-7.01406 -25.0586,5.01004 -50.1172,17.03416 -66.1547,45.09042 -5.0117,5.01005 -12.0281,5.01005 -20.0468,8.01608 l -127.2976,185.37176 c -51.1195,-10.0201 -56.1312,-101.20296 -127.2976,-104.20899 h -18.0422 c 115.2695,178.35771 89.2086,463.93041 64.15,687.37851 -5.0117,18.0362 -3.007,20.0402 -5.0117,33.0663 53.1242,66.1326 114.2671,114.2291 205.4803,127.2552 z"
     id="path217"
     style="fill:none;stroke:none;stroke-width:28.2834"
     inkscape:connector-curvature="0" /><path
     d="M 4684.2937,1697.8894 Z"
     id="path219"
     style="fill:none;stroke:none;stroke-width:28.2834"
     inkscape:connector-curvature="0" /><path
     d="m 3653.885,1639.7729 56.1312,-64.1286 22.0516,-46.0925 -71.1664,-91.1828 c -2.0047,0 -10.0234,0 -15.0351,2.004 -2.0047,3.006 -5.0118,6.012 -10.0235,11.0221 -23.0539,66.1326 -10.0234,127.2552 8.0188,193.3878 z"
     id="path221"
     style="fill:none;stroke:none;stroke-width:28.2834"
     inkscape:connector-curvature="0" /><path
     d="M 3653.885,1639.7729 Z"
     id="path223"
     style="fill:none;stroke:none;stroke-width:28.2834"
     inkscape:connector-curvature="0" /><path
     d="m 5233.5777,1623.7407 c 35.082,-2.004 76.1781,-17.0341 94.2203,-55.1105 2.0047,-82.1648 35.082,-178.3577 0,-254.5104 l -105.246,-36.0724 c -53.1242,81.1628 -55.1289,193.3879 -45.1055,290.5828 l 50.1172,55.1105 z"
     id="path225"
     style="fill:none;stroke:none;stroke-width:28.2834"
     inkscape:connector-curvature="0" /><path
     d="M 5233.5777,1623.7407 Z"
     id="path227"
     style="fill:none;stroke:none;stroke-width:28.2834"
     inkscape:connector-curvature="0" /><path
     d="m 4667.2539,1606.7066 c 25.0586,5.01 48.1125,-8.0161 61.1429,-31.0623 43.1008,-41.0824 76.1781,-99.199 81.1898,-140.2814 -8.0187,-55.1105 -51.1195,-119.2391 -102.239,-152.3054 -48.1125,-3.006 -84.1968,25.0502 -109.2554,51.1025 -23.0539,58.1165 -8.0187,119.2391 -18.0422,170.3416 18.0422,46.0924 41.0961,91.1829 87.2039,102.205 z"
     id="path229"
     style="fill:none;stroke:none;stroke-width:28.2834"
     inkscape:connector-curvature="0" /><path
     d="M 4667.2539,1606.7066 Z"
     id="path231"
     style="fill:none;stroke:none;stroke-width:28.2834"
     inkscape:connector-curvature="0" /><path
     d="m 4939.8912,423.33334 c 2485.8109,0 4514.5533,2028.06726 4514.5533,4515.05476 0,2487.9896 -2028.7424,4516.0569 -4514.5533,4516.0569 -2487.8156,0 -4516.558,-2028.0673 -4516.558,-4516.0569 0,-2486.9875 2028.7424,-4515.05476 4516.558,-4515.05476 z"
     id="path233"
     style="fill:none;stroke:none;stroke-width:28.2834"
     inkscape:connector-curvature="0" /><path
     d="M 4939.8912,423.33334 Z"
     id="path235"
     style="fill:none;stroke:none;stroke-width:28.2834"
     inkscape:connector-curvature="0" /><path
     d="m 4939.8912,491.46999 c 2446.7195,0 4445.3917,1995.00091 4445.3917,4446.91811 0,2446.9072 -1998.6722,4444.9142 -4445.3917,4444.9142 -2449.7265,0 -4445.39164,-1998.007 -4445.39164,-4444.9142 0,-2451.9172 1995.66514,-4446.91811 4445.39164,-4446.91811 z"
     id="path237"
     style="fill:none;stroke:none;stroke-width:28.2834"
     inkscape:connector-curvature="0" /></svg>
