<?xml version="1.0" encoding="UTF-8" standalone="no"?>
<svg
   xmlns:ooo="http://xml.openoffice.org/svg/export"
   xmlns:dc="http://purl.org/dc/elements/1.1/"
   xmlns:cc="http://creativecommons.org/ns#"
   xmlns:rdf="http://www.w3.org/1999/02/22-rdf-syntax-ns#"
   xmlns:svg="http://www.w3.org/2000/svg"
   xmlns="http://www.w3.org/2000/svg"
   xmlns:sodipodi="http://sodipodi.sourceforge.net/DTD/sodipodi-0.dtd"
   xmlns:inkscape="http://www.inkscape.org/namespaces/inkscape"
   version="1.2"
   width="350"
   height="350"
   viewBox="0 0 9877.7778 9877.7783"
   preserveAspectRatio="xMidYMid"
   clip-path="url(#presentation_clip_path)"
   xml:space="preserve"
   id="svg2"
   inkscape:version="0.48.4 r9939"
   sodipodi:docname="ablogo.svg"
   style="fill-rule:evenodd;stroke-width:28.22200012;stroke-linejoin:round"><metadata
     id="metadata241"><rdf:RDF><cc:Work
         rdf:about=""><dc:format>image/svg+xml</dc:format><dc:type
           rdf:resource="http://purl.org/dc/dcmitype/StillImage" /><dc:title></dc:title></cc:Work></rdf:RDF></metadata><sodipodi:namedview
     pagecolor="#ffffff"
     bordercolor="#666666"
     borderopacity="1"
     objecttolerance="10"
     gridtolerance="10"
     guidetolerance="10"
     inkscape:pageopacity="0"
     inkscape:pageshadow="2"
     inkscape:window-width="2525"
     inkscape:window-height="1420"
     id="namedview239"
     showgrid="false"
     inkscape:zoom="2.8284271"
     inkscape:cx="185.21048"
     inkscape:cy="152.7119"
     inkscape:window-x="1197"
     inkscape:window-y="237"
     inkscape:window-maximized="1"
     inkscape:current-layer="svg2" /><defs
     class="ClipPathGroup"
     id="defs4"><clipPath
       id="presentation_clip_path"
       clipPathUnits="userSpaceOnUse"><rect
         x="0"
         y="0"
         width="29703"
         height="21001"
         id="rect7" /></clipPath></defs><defs
     class="TextShapeIndex"
     id="defs9"><g
       ooo:slide="id1"
       ooo:id-list="id3"
       id="g11" /></defs><defs
     class="EmbeddedBulletChars"
     id="defs13"><g
       id="bullet-char-template(57356)"
       transform="scale(4.8828125e-4,-4.8828125e-4)"><path
         d="M 580,1141 1163,571 580,0 -4,571 580,1141 z"
         id="path16"
         inkscape:connector-curvature="0" /></g><g
       id="bullet-char-template(57354)"
       transform="scale(4.8828125e-4,-4.8828125e-4)"><path
         d="m 8,1128 1129,0 L 1137,0 8,0 8,1128 z"
         id="path19"
         inkscape:connector-curvature="0" /></g><g
       id="bullet-char-template(10146)"
       transform="scale(4.8828125e-4,-4.8828125e-4)"><path
         d="M 174,0 602,739 174,1481 1456,739 174,0 z m 1184,739 -1049,607 350,-607 699,0 z"
         id="path22"
         inkscape:connector-curvature="0" /></g><g
       id="bullet-char-template(10132)"
       transform="scale(4.8828125e-4,-4.8828125e-4)"><path
         d="M 2015,739 1276,0 717,0 l 543,543 -1086,0 0,393 1086,0 -543,545 557,0 741,-742 z"
         id="path25"
         inkscape:connector-curvature="0" /></g><g
       id="bullet-char-template(10007)"
       transform="scale(4.8828125e-4,-4.8828125e-4)"><path
         d="m 0,-2 c -7,16 -16,29 -25,39 l 381,530 c -94,256 -141,385 -141,387 0,25 13,38 40,38 9,0 21,-2 34,-5 21,4 42,12 65,25 l 27,-13 111,-251 280,301 64,-25 24,25 c 21,-10 41,-24 62,-43 C 886,937 835,863 770,784 769,783 710,716 594,584 L 774,223 c 0,-27 -21,-55 -63,-84 l 16,-20 C 717,90 699,76 672,76 641,76 570,178 457,381 L 164,-76 c -22,-34 -53,-51 -92,-51 -42,0 -63,17 -64,51 -7,9 -10,24 -10,44 0,9 1,19 2,30 z"
         id="path28"
         inkscape:connector-curvature="0" /></g><g
       id="bullet-char-template(10004)"
       transform="scale(4.8828125e-4,-4.8828125e-4)"><path
         d="M 285,-33 C 182,-33 111,30 74,156 52,228 41,333 41,471 c 0,78 14,145 41,201 34,71 87,106 158,106 53,0 88,-31 106,-94 l 23,-176 c 8,-64 28,-97 59,-98 l 735,706 c 11,11 33,17 66,17 42,0 63,-15 63,-46 l 0,-122 c 0,-36 -10,-64 -30,-84 L 442,47 C 390,-6 338,-33 285,-33 z"
         id="path31"
         inkscape:connector-curvature="0" /></g><g
       id="bullet-char-template(9679)"
       transform="scale(4.8828125e-4,-4.8828125e-4)"><path
         d="M 813,0 C 632,0 489,54 383,161 276,268 223,411 223,592 c 0,181 53,324 160,431 106,107 249,161 430,161 179,0 323,-54 432,-161 108,-107 162,-251 162,-431 0,-180 -54,-324 -162,-431 C 1136,54 992,0 813,0 z"
         id="path34"
         inkscape:connector-curvature="0" /></g><g
       id="bullet-char-template(8226)"
       transform="scale(4.8828125e-4,-4.8828125e-4)"><path
         d="m 346,457 c -73,0 -137,26 -191,78 -54,51 -81,114 -81,188 0,73 27,136 81,188 54,52 118,78 191,78 73,0 134,-26 185,-79 51,-51 77,-114 77,-187 0,-75 -25,-137 -76,-188 -50,-52 -112,-78 -186,-78 z"
         id="path37"
         inkscape:connector-curvature="0" /></g><g
       id="bullet-char-template(8211)"
       transform="scale(4.8828125e-4,-4.8828125e-4)"><path
         d="m -4,459 1139,0 0,147 -1139,0 0,-147 z"
         id="path40"
         inkscape:connector-curvature="0" /></g></defs><defs
     class="TextEmbeddedBitmaps"
     id="defs42" /><g
     id="g44"
     transform="translate(0,-11123.222)"><g
       id="id2"
       class="Master_Slide"><g
         id="bg-id2"
         class="Background" /><g
         id="bo-id2"
         class="BackgroundObjects" /></g></g><path
     sodipodi:type="arc"
     style="fill:#ff0000;stroke:none"
     id="path3218"
     sodipodi:cx="12.020815"
     sodipodi:cy="9.8816376"
     sodipodi:rx="234.05234"
     sodipodi:ry="288.85312"
     d="m 246.07315,9.8816376 a 234.05234,288.85312 0 1 1 -468.10467,0 234.05234,288.85312 0 1 1 468.10467,0 z"
     transform="matrix(19.112061,0,0,15.486149,4709.1464,4785.8606)"
     inkscape:export-filename="/home/aton3/barba/Documents/Projekt/Axelbandet/ablogo.png"
     inkscape:export-xdpi="266.095"
     inkscape:export-ydpi="266.095" /><g
     class="SlideGroup"
     id="g49"
     style="stroke:none"
     transform="matrix(1.0023431,0,0,1.0020095,-9948.9132,-5582.7116)"
     inkscape:export-filename="/home/aton3/barba/Documents/Projekt/Axelbandet/ablogo.png"
     inkscape:export-xdpi="266.095"
     inkscape:export-ydpi="266.095"><g
       id="g51"
       style="stroke:none"><g
         id="id1"
         class="Slide"
         clip-path="url(#presentation_clip_path)"
         style="stroke:none"><g
           class="Page"
           id="g54"
           style="stroke:none"><g
             class="com.sun.star.drawing.ClosedBezierShape"
             id="g56"
             style="stroke:none"><g
               id="id3"
               style="stroke:none"><path
                 d="m 14938,14733 c 64,-18 127,-46 153,-102 38,-91 -3,-180 -44,-241 -48,-53 -96,-96 -121,-150 l 12,-61 c 0,-7 -5,-12 -15,-17 -20,7 -41,17 -48,40 -13,76 43,127 68,188 -25,41 -81,38 -89,102 26,68 -16,117 -6,178 l 90,63 z m 0,0 0,0 z m -275,-43 c 5,-3 10,-5 15,-10 5,-8 21,-28 13,-46 -5,0 -13,0 -20,-3 l -16,-30 21,-150 c 5,-10 15,-25 33,-30 5,0 15,0 23,-8 l -13,-28 c -31,-13 -54,10 -71,26 l -66,-13 c -16,10 -28,30 -21,53 l 38,-2 c 31,56 6,127 -7,190 10,31 35,36 61,51 l 10,0 z m 0,0 0,0 z m 298,-23 c 41,-25 71,-79 64,-137 -8,-33 -21,-64 -31,-76 -10,-3 -15,-13 -33,-13 -13,10 -38,18 -46,43 l -2,150 c 5,13 20,28 38,33 l 10,0 z m 0,0 0,0 z m 335,-10 c 31,0 54,-13 69,-31 5,-10 10,-17 10,-17 0,-8 0,-13 0,-23 -23,-23 -25,30 -56,30 -15,-2 -30,-20 -40,-38 l 127,-117 -102,-117 -30,13 c -56,41 -87,117 -74,201 13,20 18,25 23,43 l 73,56 z m 0,0 0,0 z m -1055,-10 c 56,0 92,-51 132,-84 26,-33 23,-81 33,-117 3,-13 8,-13 18,-25 5,0 13,-5 23,-5 8,-5 10,-21 5,-31 l -28,-13 -119,33 c -5,6 -10,18 -5,28 l 35,3 c 16,15 16,46 16,71 l -94,97 c -46,-8 -46,-72 -72,-105 -2,-50 0,-94 13,-139 -2,-8 -13,-13 -20,-26 l -64,18 -12,31 c 2,12 38,2 50,22 l -20,102 102,140 7,0 z m 0,0 0,0 z m 1033,-140 53,-38 c 2,-18 0,-41 -15,-56 -3,-5 -13,-5 -23,-2 -3,2 -5,5 -10,10 l -16,86 11,0 z m 0,0 0,0 z m 904,-96 58,-44 31,-7 c 20,-18 45,-46 38,-79 -3,-28 -15,-43 -26,-56 -28,-35 -81,8 -122,-2 -15,-11 -10,-39 0,-51 l 64,-31 c 5,-5 15,-10 20,-25 0,-5 0,-10 -5,-13 l -104,43 c -8,16 -25,38 -23,64 8,20 31,43 54,53 l 58,-7 c 20,15 41,40 38,68 l -63,18 -36,48 c 0,8 0,18 15,21 l 3,0 z m 0,0 0,0 z m -1533,-44 33,-23 c 0,-10 0,-15 0,-25 -2,-13 -18,-18 -33,-23 -13,3 -25,15 -30,31 0,17 10,30 28,40 l 2,0 z m 0,0 0,0 z m -1384,-25 35,-15 c 6,-13 -12,-13 -17,-23 l 2,-64 c 31,-33 46,-94 99,-104 10,-2 18,-2 23,-5 3,-2 5,-7 8,-15 -5,-13 -15,-15 -31,-26 l -33,11 c -23,-8 -45,-23 -79,-18 -5,5 -12,7 -10,18 0,5 10,7 18,10 18,13 18,46 3,66 -18,33 -28,63 -59,79 -15,20 -2,53 10,71 8,5 21,15 31,15 z m 0,0 0,0 z m 3229,-58 c 5,0 15,-3 18,-11 10,-15 3,-30 8,-48 -8,-28 -26,-2 -41,0 -23,0 -38,-18 -46,-38 -63,-109 -81,-229 -66,-351 -25,23 -40,77 -40,115 -11,25 -51,18 -79,25 -3,5 -10,13 -5,20 l 45,8 c 64,64 105,160 120,254 l 86,26 z m 0,0 0,0 z m -3531,-51 c 61,-10 127,-13 160,-61 96,-130 -33,-305 56,-424 0,0 0,-11 -6,-16 -12,-15 -40,-2 -53,13 -41,51 -53,112 -41,168 0,15 -15,28 -30,30 l -71,15 -114,143 c 0,50 43,86 73,122 13,7 13,10 26,10 z m 0,0 0,0 z m 0,-56 101,-46 c 28,-41 26,-89 26,-140 -11,-30 -44,-10 -64,-10 -43,23 -56,74 -89,102 -15,38 3,61 13,94 5,0 8,0 13,0 z m 0,0 0,0 z m 3673,0 59,-15 c 13,-13 5,-36 5,-54 -15,-25 -33,8 -53,0 -28,-51 -82,-106 -54,-180 8,-10 8,-18 5,-23 -2,0 -10,0 -15,0 -25,5 -38,33 -48,56 -8,8 -23,13 -41,15 -10,5 -5,26 -5,38 13,16 23,-7 38,-10 69,36 56,125 107,173 l 2,0 z m 0,0 0,0 z m -2050,-76 c 127,0 244,-51 321,-125 165,-200 78,-465 96,-701 -7,-53 -5,-109 -12,-160 -8,-208 -21,-410 -33,-613 10,-43 20,-97 58,-109 107,0 206,73 297,84 86,43 186,30 267,66 160,22 310,25 472,30 130,-20 239,-25 366,-53 259,-87 521,-158 673,-386 38,-97 94,-178 104,-290 59,-142 -12,-295 -66,-422 -198,-355 -594,-510 -1008,-586 -3,-3 -5,-8 -8,-16 120,-114 206,-271 173,-462 -91,-315 -368,-434 -650,-541 -264,-84 -529,-117 -778,-213 l 211,-236 c 282,-336 389,-869 264,-1315 -68,-172 -116,-358 -264,-452 -58,-38 -147,-38 -205,-7 -85,50 -111,150 -149,238 -58,346 -53,687 -38,1028 -10,243 10,480 0,718 -5,11 -10,18 -28,23 -167,148 -465,198 -698,285 -122,38 -237,89 -343,139 -186,79 -333,214 -475,338 -170,188 -343,381 -440,612 -73,117 -137,267 -160,417 -25,152 -17,290 -25,442 30,254 124,465 320,604 69,36 135,64 218,74 77,20 155,3 229,-2 10,-5 18,-8 23,-8 13,0 25,-13 30,-30 -205,-166 -337,-483 -315,-790 3,-221 77,-453 244,-569 198,-138 465,-199 717,-259 157,-28 309,-36 462,-11 86,3 178,13 256,33 11,107 11,359 13,460 10,574 23,1146 33,1716 0,104 0,205 -10,304 0,16 -15,28 -31,33 -134,-33 -279,6 -368,110 -94,106 -86,271 -53,414 51,83 132,152 231,172 30,5 56,8 79,16 z m 0,0 0,0 z m -1885,-33 c 5,0 13,0 23,0 5,0 13,-3 15,-13 -2,-10 -8,-10 -13,-18 -5,-63 56,-101 92,-145 23,-25 51,-15 71,-20 5,-10 0,-23 -5,-30 l -104,-28 -26,20 16,23 c 0,5 2,10 2,15 l -71,89 -79,-10 -23,-41 69,-99 38,-23 c 13,-18 10,-43 5,-63 -7,-10 -15,-26 -35,-31 l -46,23 c 2,13 23,13 25,31 -33,48 -76,106 -129,132 l 23,109 104,28 c 12,18 15,48 48,51 z m 0,0 0,0 z m 660,0 31,-23 -8,-31 c -7,-2 -15,-12 -30,-12 -10,5 -23,12 -26,28 0,15 13,27 28,38 l 5,0 z m 0,0 0,0 z m 3491,-23 c 36,0 89,-5 110,-38 17,-79 17,-165 -33,-216 -74,-82 -229,-54 -282,-142 -13,-31 0,-54 -16,-72 -2,0 -12,-5 -17,-5 -28,26 -26,69 -11,107 33,48 87,81 130,102 l -30,99 60,89 21,53 68,23 z m 0,0 0,0 z m 41,-54 c 5,0 15,-2 20,-7 10,-46 3,-107 -28,-140 -38,-20 -68,-43 -111,-43 l -26,56 82,119 63,15 z m 0,0 0,0 z m -391,-66 7,-2 c 3,-3 6,-5 13,-10 0,-3 0,-10 0,-16 0,-5 0,-10 -7,-17 -6,-3 -16,-13 -28,-13 -13,8 -18,28 -13,46 l 23,15 5,-3 z m 0,0 0,0 z m 615,-76 71,-7 c 7,-16 23,-26 33,-46 l 2,-38 c 0,0 -2,-8 -12,-10 -13,5 -3,22 -8,33 -3,12 -15,25 -31,30 l -55,-23 c -3,-5 -6,-7 -8,-15 l 53,-150 c 0,-2 -2,-10 -5,-15 0,-3 -5,-5 -10,-10 l -102,-13 c -38,25 -50,81 -48,135 3,45 15,63 41,91 l 79,38 z m 0,0 0,0 z m -4777,-30 c 18,0 36,0 49,-8 l -23,-56 78,-101 97,-16 c 10,0 15,-12 15,-22 l -81,-46 -79,-89 -94,20 c -51,54 -122,132 -96,216 l 89,33 35,66 c 3,0 5,0 10,3 z m 0,0 0,0 z m 4741,-97 28,-53 c 0,-5 -5,-10 -10,-15 l -31,-16 c -7,0 -10,3 -12,11 -11,25 5,50 22,76 l 3,-3 z m 0,0 0,0 z m -4764,-15 94,-99 -30,-51 c -33,-15 -56,10 -76,31 -21,25 -38,45 -51,66 0,10 0,15 3,25 l 55,28 5,0 z m 0,0 0,0 z m 3453,-1281 c 99,-5 193,-3 298,-23 144,-51 246,-125 358,-221 106,-119 195,-290 162,-480 -79,-241 -297,-379 -500,-470 -145,-66 -287,-122 -445,-157 -238,-77 -492,-117 -736,-138 l -3,110 c 18,302 3,596 54,901 15,140 68,254 182,325 132,69 280,102 417,130 76,10 145,5 213,23 z m 0,0 0,0 z m -619,-1603 c 175,13 391,-15 515,-137 20,-20 33,-26 43,-38 74,-89 122,-221 92,-351 -87,-218 -275,-322 -470,-419 -137,-40 -267,-79 -404,-122 -28,-12 -56,-23 -80,-20 l 65,1059 c 48,15 155,18 239,28 z m 0,0 0,0 z m -1807,-13 246,-38 c 267,-73 554,-61 828,-43 86,5 188,28 269,33 18,-295 -15,-620 -5,-924 0,-23 0,-39 0,-56 -15,-31 -56,12 -79,17 -63,36 -114,77 -185,107 -168,79 -330,158 -493,246 -170,110 -322,227 -437,392 -78,71 -119,160 -165,243 -2,8 3,16 10,23 l 11,0 z m 0,0 0,0 z m 1498,-1389 c 29,-18 37,-58 65,-84 15,-35 33,-56 51,-86 83,-165 116,-366 139,-546 -2,-186 -23,-397 -99,-558 l -48,-40 c -33,0 -53,33 -69,56 -95,222 -90,458 -84,681 15,196 12,392 38,580 l 7,-3 z m 0,0 0,0 z M 12385,8193 c 2,0 7,0 12,0 46,-84 10,-198 59,-272 78,-43 170,8 216,-76 l 63,46 86,-8 c 23,-7 23,-43 39,-63 l -6,-48 c 0,-11 -12,-13 -22,-13 -13,18 -28,28 -49,40 l -40,-10 c -112,-127 -216,-279 -333,-416 -38,-76 -13,-150 -3,-219 0,-2 -7,-7 -15,-10 -15,8 -30,23 -38,41 l -41,117 -124,33 c -3,7 -3,12 0,22 33,11 89,-5 117,26 71,76 122,160 178,223 30,77 129,120 114,204 -10,20 -25,28 -31,38 l -111,-5 c -28,-120 -3,-280 -112,-366 -56,-36 -147,-76 -213,-46 -18,5 -28,18 -41,18 -41,35 -76,109 -58,170 30,150 203,173 248,302 -2,21 -17,41 -5,51 5,3 16,3 23,0 38,-53 21,-134 -20,-178 -66,-83 -175,-129 -170,-228 15,-36 33,-56 71,-66 48,5 89,53 112,91 106,181 83,401 83,602 3,0 5,0 11,0 z m 0,0 0,0 z m 4799,-40 c 15,0 35,2 48,-6 2,-2 5,-7 5,-15 -3,-2 -8,-10 -15,-13 l -28,-43 c 15,-71 109,-111 140,-170 53,-38 86,-99 137,-124 l 104,58 28,-15 c 12,-46 -54,-66 -69,-109 l 247,-313 c 0,-7 -3,-18 -8,-23 -31,-20 -76,0 -104,18 -120,66 -247,130 -384,145 -12,5 -25,18 -30,33 0,20 15,33 30,46 36,0 38,40 71,58 8,15 23,20 26,36 l -186,221 -89,45 11,135 c 5,10 15,25 35,30 l 31,6 z m 0,0 0,0 z m -3946,-209 c 0,0 10,0 15,-2 3,0 5,-5 8,-13 0,-8 -3,-18 -8,-23 l -104,-56 -23,-23 c -56,-86 0,-205 49,-279 63,-15 121,63 190,28 l 23,-79 -23,-43 c -5,-3 -13,-3 -18,0 l -40,58 c -66,-28 -132,-78 -163,-147 -18,-61 -43,-124 -8,-173 13,-15 16,-17 28,-22 41,2 87,5 112,-23 l 20,-87 c 0,-2 -5,-5 -12,-7 l -64,38 c -40,-13 -96,-15 -134,15 -23,48 -49,81 -72,117 -68,18 -177,-23 -228,41 -18,20 -15,48 -36,63 l 18,53 c 48,3 66,-96 135,-76 71,28 129,46 167,109 28,56 3,105 -2,155 -36,89 -76,191 -26,272 56,56 117,86 196,104 z m 0,0 0,0 z m 3539,-94 102,-23 c 7,-7 13,-25 7,-38 -43,-7 -106,13 -124,-40 0,-26 -3,-59 15,-79 87,-41 216,41 305,-26 l -30,-246 c -28,-28 -61,-8 -102,-8 -91,21 -150,67 -203,125 -51,69 -79,178 -41,272 l 66,63 5,0 z m 0,0 0,0 z m 694,-218 c 5,-3 10,-3 15,-8 2,-7 10,-20 5,-30 l -51,12 c 0,3 0,11 5,18 3,3 3,5 16,10 l 10,-2 z m 0,0 0,0 z m -623,-26 97,-10 23,-129 c -31,-18 -59,23 -87,48 -17,30 -48,51 -43,91 3,0 5,0 10,0 z m 0,0 0,0 z m -525,-7 c 121,2 246,-54 317,-140 119,-140 66,-348 8,-516 -31,-60 -66,-134 -21,-195 l 59,-33 c -5,-23 -28,-38 -54,-36 -58,10 -104,38 -132,84 -25,97 -2,180 31,274 0,3 -3,11 -8,16 l -175,53 c -43,61 -69,137 -109,206 -8,33 -28,48 -48,61 -23,56 38,91 48,150 33,33 38,73 84,76 z m 0,0 0,0 z m 55,-87 c 74,3 140,-40 188,-101 41,-51 54,-125 33,-188 -20,-31 -17,-79 -45,-92 l -112,31 c -43,61 -79,142 -117,218 -2,54 18,102 48,132 l 5,0 z m 0,0 0,0 z m -2726,-63 38,-3 c 51,-35 79,-83 107,-137 l -18,-23 c -58,5 -79,66 -127,94 -38,-2 -43,-43 -61,-71 5,-71 94,-129 140,-172 23,-16 43,-26 56,-46 l -13,-48 -208,-140 c -3,0 -13,2 -18,5 -97,71 -127,223 -97,358 36,99 102,155 201,183 z m 0,0 0,0 z m 2264,-15 97,-18 c 7,-5 15,-13 20,-28 0,-5 0,-10 -5,-13 l -64,-18 c -27,-78 44,-165 56,-243 3,-13 16,-23 31,-31 l 66,-23 c 2,-2 5,-7 7,-15 -55,-23 -114,-63 -152,-117 -56,-68 -135,5 -190,-33 -23,-20 -33,-40 -56,-48 l -104,30 c -11,6 -18,16 -23,33 0,6 2,13 7,16 l 56,0 c 13,2 28,17 33,33 l -71,241 c -5,18 -25,18 -38,33 -13,53 41,74 76,117 10,10 23,10 33,15 l 71,-33 c 8,-5 10,-15 16,-30 0,-5 -3,-11 -8,-13 l -48,-3 c -18,-5 -21,-25 -31,-45 l 89,-244 61,-28 86,56 c 13,5 16,20 23,35 l -76,226 c -5,5 -13,8 -23,16 -18,50 26,86 43,127 8,5 13,5 13,5 l 5,0 z m 0,0 0,0 z m -1804,-99 c 28,0 48,-16 66,-33 l 33,-102 c 0,0 -3,-5 -10,-8 l -82,36 c -15,-13 -43,-23 -53,-51 -30,-269 -94,-602 119,-805 0,-3 0,-8 -5,-13 l -28,3 c -78,66 -124,157 -167,254 -3,0 -8,2 -15,2 -36,-38 -74,-111 -143,-111 -10,5 -10,17 -10,28 48,60 112,111 125,203 12,48 15,86 22,152 l 0,28 c -5,74 36,221 -10,315 36,46 92,74 158,102 z m 0,0 0,0 z m 1256,-44 c 27,-15 76,-50 73,-91 -20,-18 -58,15 -81,-10 -61,-89 -8,-203 0,-295 l 104,-53 c 5,-10 10,-23 5,-33 -91,-23 -190,-23 -277,-76 -78,-13 -111,33 -167,73 -41,107 -51,224 -36,320 18,54 31,87 48,127 10,18 36,31 61,23 49,-2 59,-40 115,-38 10,-8 17,-10 28,-13 116,77 94,51 127,66 z m 0,0 0,0 z m -769,-25 c 102,-51 173,-157 224,-244 -23,-117 -99,-185 -152,-279 -64,-21 -99,43 -143,66 -5,0 -12,0 -15,-8 -28,-104 15,-221 64,-312 35,-74 81,-132 124,-196 -2,-2 -5,-5 -8,-7 -25,5 -50,17 -66,45 -5,5 -12,5 -20,8 l -127,185 c -51,-10 -56,-101 -127,-104 -8,0 -18,0 -18,0 115,178 89,463 64,686 -5,18 -3,20 -5,33 53,66 114,114 205,127 z m 0,0 0,0 z m -1028,-58 56,-64 22,-46 -71,-91 c -2,0 -10,0 -15,2 -2,3 -5,6 -10,11 -23,66 -10,127 8,193 l 10,-5 z m 0,0 0,0 z m 1576,-16 c 35,-2 76,-17 94,-55 2,-82 35,-178 0,-254 l -105,-36 c -53,81 -55,193 -45,290 l 50,55 6,0 z m 0,0 0,0 z m -565,-17 c 25,5 48,-8 61,-31 43,-41 76,-99 81,-140 -8,-55 -51,-119 -102,-152 -48,-3 -84,25 -109,51 -23,58 -8,119 -18,170 18,46 41,91 87,102 z m 0,0 0,0 z m 272,-1181 c 2480,0 4504,2024 4504,4506 0,2483 -2024,4507 -4504,4507 -2482,0 -4506,-2024 -4506,-4507 0,-2482 2024,-4506 4506,-4506 z m 0,0 0,0 z m 0,68 c 2441,0 4435,1991 4435,4438 0,2442 -1994,4436 -4435,4436 -2444,0 -4435,-1994 -4435,-4436 0,-2447 1991,-4438 4435,-4438 z"
                 id="path59"
                 style="fill:#1b1918;stroke:none"
                 inkscape:connector-curvature="0" /><path
                 d="m 14938,14733 c 64,-18 127,-46 153,-102 38,-91 -3,-180 -44,-241 -48,-53 -96,-96 -121,-150 l 12,-61 c 0,-7 -5,-12 -15,-17 -20,7 -41,17 -48,40 -13,76 43,127 68,188 -25,41 -81,38 -89,102 26,68 -16,117 -6,178 l 90,63 z"
                 id="path61"
                 style="fill:none;stroke:none"
                 inkscape:connector-curvature="0" /><path
                 d="m 14938,14733 0,0 z"
                 id="path63"
                 style="fill:none;stroke:none"
                 inkscape:connector-curvature="0" /><path
                 d="m 14663,14690 c 5,-3 10,-5 15,-10 5,-8 21,-28 13,-46 -5,0 -13,0 -20,-3 l -16,-30 21,-150 c 5,-10 15,-25 33,-30 5,0 15,0 23,-8 l -13,-28 c -31,-13 -54,10 -71,26 l -66,-13 c -16,10 -28,30 -21,53 l 38,-2 c 31,56 6,127 -7,190 10,31 35,36 61,51 l 10,0 z"
                 id="path65"
                 style="fill:none;stroke:none"
                 inkscape:connector-curvature="0" /><path
                 d="m 14663,14690 0,0 z"
                 id="path67"
                 style="fill:none;stroke:none"
                 inkscape:connector-curvature="0" /><path
                 d="m 14961,14667 c 41,-25 71,-79 64,-137 -8,-33 -21,-64 -31,-76 -10,-3 -15,-13 -33,-13 -13,10 -38,18 -46,43 l -2,150 c 5,13 20,28 38,33 l 10,0 z"
                 id="path69"
                 style="fill:none;stroke:none"
                 inkscape:connector-curvature="0" /><path
                 d="m 14961,14667 0,0 z"
                 id="path71"
                 style="fill:none;stroke:none"
                 inkscape:connector-curvature="0" /><path
                 d="m 15296,14657 c 31,0 54,-13 69,-31 5,-10 10,-17 10,-17 l 0,-23 c -23,-23 -25,30 -56,30 -15,-2 -30,-20 -40,-38 l 127,-117 -102,-117 -30,13 c -56,41 -87,117 -74,201 13,20 18,25 23,43 l 73,56 z"
                 id="path73"
                 style="fill:none;stroke:none"
                 inkscape:connector-curvature="0" /><path
                 d="m 15296,14657 0,0 z"
                 id="path75"
                 style="fill:none;stroke:none"
                 inkscape:connector-curvature="0" /><path
                 d="m 14241,14647 c 56,0 92,-51 132,-84 26,-33 23,-81 33,-117 3,-13 8,-13 18,-25 5,0 13,-5 23,-5 8,-5 10,-21 5,-31 l -28,-13 -119,33 c -5,6 -10,18 -5,28 l 35,3 c 16,15 16,46 16,71 l -94,97 c -46,-8 -46,-72 -72,-105 -2,-50 0,-94 13,-139 -2,-8 -13,-13 -20,-26 l -64,18 -12,31 c 2,12 38,2 50,22 l -20,102 102,140 7,0 z"
                 id="path77"
                 style="fill:none;stroke:none"
                 inkscape:connector-curvature="0" /><path
                 d="m 14241,14647 0,0 z"
                 id="path79"
                 style="fill:none;stroke:none"
                 inkscape:connector-curvature="0" /><path
                 d="m 15274,14507 53,-38 c 2,-18 0,-41 -15,-56 -3,-5 -13,-5 -23,-2 -3,2 -5,5 -10,10 l -16,86 11,0 z"
                 id="path81"
                 style="fill:none;stroke:none"
                 inkscape:connector-curvature="0" /><path
                 d="m 15274,14507 0,0 z"
                 id="path83"
                 style="fill:none;stroke:none"
                 inkscape:connector-curvature="0" /><path
                 d="m 16178,14411 58,-44 31,-7 c 20,-18 45,-46 38,-79 -3,-28 -15,-43 -26,-56 -28,-35 -81,8 -122,-2 -15,-11 -10,-39 0,-51 l 64,-31 c 5,-5 15,-10 20,-25 0,-5 0,-10 -5,-13 l -104,43 c -8,16 -25,38 -23,64 8,20 31,43 54,53 l 58,-7 c 20,15 41,40 38,68 l -63,18 -36,48 c 0,8 0,18 15,21 l 3,0 z"
                 id="path85"
                 style="fill:none;stroke:none"
                 inkscape:connector-curvature="0" /><path
                 d="m 16178,14411 0,0 z"
                 id="path87"
                 style="fill:none;stroke:none"
                 inkscape:connector-curvature="0" /><path
                 d="m 14645,14367 33,-23 0,-25 c -2,-13 -18,-18 -33,-23 -13,3 -25,15 -30,31 0,17 10,30 28,40 l 2,0 z"
                 id="path89"
                 style="fill:none;stroke:none"
                 inkscape:connector-curvature="0" /><path
                 d="m 14645,14367 0,0 z"
                 id="path91"
                 style="fill:none;stroke:none"
                 inkscape:connector-curvature="0" /><path
                 d="m 13261,14342 35,-15 c 6,-13 -12,-13 -17,-23 l 2,-64 c 31,-33 46,-94 99,-104 10,-2 18,-2 23,-5 3,-2 5,-7 8,-15 -5,-13 -15,-15 -31,-26 l -33,11 c -23,-8 -45,-23 -79,-18 -5,5 -12,7 -10,18 0,5 10,7 18,10 18,13 18,46 3,66 -18,33 -28,63 -59,79 -15,20 -2,53 10,71 8,5 21,15 31,15 z"
                 id="path93"
                 style="fill:none;stroke:none"
                 inkscape:connector-curvature="0" /><path
                 d="m 13261,14342 0,0 z"
                 id="path95"
                 style="fill:none;stroke:none"
                 inkscape:connector-curvature="0" /><path
                 d="m 16490,14284 c 5,0 15,-3 18,-11 10,-15 3,-30 8,-48 -8,-28 -26,-2 -41,0 -23,0 -38,-18 -46,-38 -63,-109 -81,-229 -66,-351 -25,23 -40,77 -40,115 -11,25 -51,18 -79,25 -3,5 -10,13 -5,20 l 45,8 c 64,64 105,160 120,254 l 86,26 z"
                 id="path97"
                 style="fill:none;stroke:none"
                 inkscape:connector-curvature="0" /><path
                 d="m 16490,14284 0,0 z"
                 id="path99"
                 style="fill:none;stroke:none"
                 inkscape:connector-curvature="0" /><path
                 d="m 12959,14233 c 61,-10 127,-13 160,-61 96,-130 -33,-305 56,-424 0,0 0,-11 -6,-16 -12,-15 -40,-2 -53,13 -41,51 -53,112 -41,168 0,15 -15,28 -30,30 l -71,15 -114,143 c 0,50 43,86 73,122 13,7 13,10 26,10 z"
                 id="path101"
                 style="fill:none;stroke:none"
                 inkscape:connector-curvature="0" /><path
                 d="m 12959,14233 0,0 z"
                 id="path103"
                 style="fill:none;stroke:none"
                 inkscape:connector-curvature="0" /><path
                 d="m 12959,14177 101,-46 c 28,-41 26,-89 26,-140 -11,-30 -44,-10 -64,-10 -43,23 -56,74 -89,102 -15,38 3,61 13,94 l 13,0 z"
                 id="path105"
                 style="fill:none;stroke:none"
                 inkscape:connector-curvature="0" /><path
                 d="m 12959,14177 0,0 z"
                 id="path107"
                 style="fill:none;stroke:none"
                 inkscape:connector-curvature="0" /><path
                 d="m 16632,14177 59,-15 c 13,-13 5,-36 5,-54 -15,-25 -33,8 -53,0 -28,-51 -82,-106 -54,-180 8,-10 8,-18 5,-23 l -15,0 c -25,5 -38,33 -48,56 -8,8 -23,13 -41,15 -10,5 -5,26 -5,38 13,16 23,-7 38,-10 69,36 56,125 107,173 l 2,0 z"
                 id="path109"
                 style="fill:none;stroke:none"
                 inkscape:connector-curvature="0" /><path
                 d="m 16632,14177 0,0 z"
                 id="path111"
                 style="fill:none;stroke:none"
                 inkscape:connector-curvature="0" /><path
                 d="m 14582,14101 c 127,0 244,-51 321,-125 165,-200 78,-465 96,-701 -7,-53 -5,-109 -12,-160 -8,-208 -21,-410 -33,-613 10,-43 20,-97 58,-109 107,0 206,73 297,84 86,43 186,30 267,66 160,22 310,25 472,30 130,-20 239,-25 366,-53 259,-87 521,-158 673,-386 38,-97 94,-178 104,-290 59,-142 -12,-295 -66,-422 -198,-355 -594,-510 -1008,-586 -3,-3 -5,-8 -8,-16 120,-114 206,-271 173,-462 -91,-315 -368,-434 -650,-541 -264,-84 -529,-117 -778,-213 l 211,-236 c 282,-336 389,-869 264,-1315 -68,-172 -116,-358 -264,-452 -58,-38 -147,-38 -205,-7 -85,50 -111,150 -149,238 -58,346 -53,687 -38,1028 -10,243 10,480 0,718 -5,11 -10,18 -28,23 -167,148 -465,198 -698,285 -122,38 -237,89 -343,139 -186,79 -333,214 -475,338 -170,188 -343,381 -440,612 -73,117 -137,267 -160,417 -25,152 -17,290 -25,442 30,254 124,465 320,604 69,36 135,64 218,74 77,20 155,3 229,-2 10,-5 18,-8 23,-8 13,0 25,-13 30,-30 -205,-166 -337,-483 -315,-790 3,-221 77,-453 244,-569 198,-138 465,-199 717,-259 157,-28 309,-36 462,-11 86,3 178,13 256,33 11,107 11,359 13,460 10,574 23,1146 33,1716 0,104 0,205 -10,304 0,16 -15,28 -31,33 -134,-33 -279,6 -368,110 -94,106 -86,271 -53,414 51,83 132,152 231,172 30,5 56,8 79,16 z"
                 id="path113"
                 style="fill:none;stroke:none"
                 inkscape:connector-curvature="0" /><path
                 d="m 14582,14101 0,0 z"
                 id="path115"
                 style="fill:none;stroke:none"
                 inkscape:connector-curvature="0" /><path
                 d="m 12697,14068 23,0 c 5,0 13,-3 15,-13 -2,-10 -8,-10 -13,-18 -5,-63 56,-101 92,-145 23,-25 51,-15 71,-20 5,-10 0,-23 -5,-30 l -104,-28 -26,20 16,23 c 0,5 2,10 2,15 l -71,89 -79,-10 -23,-41 69,-99 38,-23 c 13,-18 10,-43 5,-63 -7,-10 -15,-26 -35,-31 l -46,23 c 2,13 23,13 25,31 -33,48 -76,106 -129,132 l 23,109 104,28 c 12,18 15,48 48,51 z"
                 id="path117"
                 style="fill:none;stroke:none"
                 inkscape:connector-curvature="0" /><path
                 d="m 12697,14068 0,0 z"
                 id="path119"
                 style="fill:none;stroke:none"
                 inkscape:connector-curvature="0" /><path
                 d="m 13357,14068 31,-23 -8,-31 c -7,-2 -15,-12 -30,-12 -10,5 -23,12 -26,28 0,15 13,27 28,38 l 5,0 z"
                 id="path121"
                 style="fill:none;stroke:none"
                 inkscape:connector-curvature="0" /><path
                 d="m 13357,14068 0,0 z"
                 id="path123"
                 style="fill:none;stroke:none"
                 inkscape:connector-curvature="0" /><path
                 d="m 16848,14045 c 36,0 89,-5 110,-38 17,-79 17,-165 -33,-216 -74,-82 -229,-54 -282,-142 -13,-31 0,-54 -16,-72 -2,0 -12,-5 -17,-5 -28,26 -26,69 -11,107 33,48 87,81 130,102 l -30,99 60,89 21,53 68,23 z"
                 id="path125"
                 style="fill:none;stroke:none"
                 inkscape:connector-curvature="0" /><path
                 d="m 16848,14045 0,0 z"
                 id="path127"
                 style="fill:none;stroke:none"
                 inkscape:connector-curvature="0" /><path
                 d="m 16889,13991 c 5,0 15,-2 20,-7 10,-46 3,-107 -28,-140 -38,-20 -68,-43 -111,-43 l -26,56 82,119 63,15 z"
                 id="path129"
                 style="fill:none;stroke:none"
                 inkscape:connector-curvature="0" /><path
                 d="m 16889,13991 0,0 z"
                 id="path131"
                 style="fill:none;stroke:none"
                 inkscape:connector-curvature="0" /><path
                 d="m 16498,13925 7,-2 c 3,-3 6,-5 13,-10 l 0,-16 c 0,-5 0,-10 -7,-17 -6,-3 -16,-13 -28,-13 -13,8 -18,28 -13,46 l 23,15 5,-3 z"
                 id="path133"
                 style="fill:none;stroke:none"
                 inkscape:connector-curvature="0" /><path
                 d="m 16498,13925 0,0 z"
                 id="path135"
                 style="fill:none;stroke:none"
                 inkscape:connector-curvature="0" /><path
                 d="m 17113,13849 71,-7 c 7,-16 23,-26 33,-46 l 2,-38 c 0,0 -2,-8 -12,-10 -13,5 -3,22 -8,33 -3,12 -15,25 -31,30 l -55,-23 c -3,-5 -6,-7 -8,-15 l 53,-150 c 0,-2 -2,-10 -5,-15 0,-3 -5,-5 -10,-10 l -102,-13 c -38,25 -50,81 -48,135 3,45 15,63 41,91 l 79,38 z"
                 id="path137"
                 style="fill:none;stroke:none"
                 inkscape:connector-curvature="0" /><path
                 d="m 17113,13849 0,0 z"
                 id="path139"
                 style="fill:none;stroke:none"
                 inkscape:connector-curvature="0" /><path
                 d="m 12336,13819 c 18,0 36,0 49,-8 l -23,-56 78,-101 97,-16 c 10,0 15,-12 15,-22 l -81,-46 -79,-89 -94,20 c -51,54 -122,132 -96,216 l 89,33 35,66 c 3,0 5,0 10,3 z"
                 id="path141"
                 style="fill:none;stroke:none"
                 inkscape:connector-curvature="0" /><path
                 d="m 12336,13819 0,0 z"
                 id="path143"
                 style="fill:none;stroke:none"
                 inkscape:connector-curvature="0" /><path
                 d="m 17077,13722 28,-53 c 0,-5 -5,-10 -10,-15 l -31,-16 c -7,0 -10,3 -12,11 -11,25 5,50 22,76 l 3,-3 z"
                 id="path145"
                 style="fill:none;stroke:none"
                 inkscape:connector-curvature="0" /><path
                 d="m 17077,13722 0,0 z"
                 id="path147"
                 style="fill:none;stroke:none"
                 inkscape:connector-curvature="0" /><path
                 d="m 12313,13707 94,-99 -30,-51 c -33,-15 -56,10 -76,31 -21,25 -38,45 -51,66 0,10 0,15 3,25 l 55,28 5,0 z"
                 id="path149"
                 style="fill:none;stroke:none"
                 inkscape:connector-curvature="0" /><path
                 d="m 12313,13707 0,0 z"
                 id="path151"
                 style="fill:none;stroke:none"
                 inkscape:connector-curvature="0" /><path
                 d="m 15766,12426 c 99,-5 193,-3 298,-23 144,-51 246,-125 358,-221 106,-119 195,-290 162,-480 -79,-241 -297,-379 -500,-470 -145,-66 -287,-122 -445,-157 -238,-77 -492,-117 -736,-138 l -3,110 c 18,302 3,596 54,901 15,140 68,254 182,325 132,69 280,102 417,130 76,10 145,5 213,23 z"
                 id="path153"
                 style="fill:none;stroke:none"
                 inkscape:connector-curvature="0" /><path
                 d="m 15766,12426 0,0 z"
                 id="path155"
                 style="fill:none;stroke:none"
                 inkscape:connector-curvature="0" /><path
                 d="m 15147,10823 c 175,13 391,-15 515,-137 20,-20 33,-26 43,-38 74,-89 122,-221 92,-351 -87,-218 -275,-322 -470,-419 -137,-40 -267,-79 -404,-122 -28,-12 -56,-23 -80,-20 l 65,1059 c 48,15 155,18 239,28 z"
                 id="path157"
                 style="fill:none;stroke:none"
                 inkscape:connector-curvature="0" /><path
                 d="m 15147,10823 0,0 z"
                 id="path159"
                 style="fill:none;stroke:none"
                 inkscape:connector-curvature="0" /><path
                 d="m 13340,10810 246,-38 c 267,-73 554,-61 828,-43 86,5 188,28 269,33 18,-295 -15,-620 -5,-924 l 0,-56 c -15,-31 -56,12 -79,17 -63,36 -114,77 -185,107 -168,79 -330,158 -493,246 -170,110 -322,227 -437,392 -78,71 -119,160 -165,243 -2,8 3,16 10,23 l 11,0 z"
                 id="path161"
                 style="fill:none;stroke:none"
                 inkscape:connector-curvature="0" /><path
                 d="m 13340,10810 0,0 z"
                 id="path163"
                 style="fill:none;stroke:none"
                 inkscape:connector-curvature="0" /><path
                 d="m 14838,9421 c 29,-18 37,-58 65,-84 15,-35 33,-56 51,-86 83,-165 116,-366 139,-546 -2,-186 -23,-397 -99,-558 l -48,-40 c -33,0 -53,33 -69,56 -95,222 -90,458 -84,681 15,196 12,392 38,580 l 7,-3 z"
                 id="path165"
                 style="fill:none;stroke:none"
                 inkscape:connector-curvature="0" /><path
                 d="m 14838,9421 0,0 z"
                 id="path167"
                 style="fill:none;stroke:none"
                 inkscape:connector-curvature="0" /><path
                 d="m 12385,8193 12,0 c 46,-84 10,-198 59,-272 78,-43 170,8 216,-76 l 63,46 86,-8 c 23,-7 23,-43 39,-63 l -6,-48 c 0,-11 -12,-13 -22,-13 -13,18 -28,28 -49,40 l -40,-10 c -112,-127 -216,-279 -333,-416 -38,-76 -13,-150 -3,-219 0,-2 -7,-7 -15,-10 -15,8 -30,23 -38,41 l -41,117 -124,33 c -3,7 -3,12 0,22 33,11 89,-5 117,26 71,76 122,160 178,223 30,77 129,120 114,204 -10,20 -25,28 -31,38 l -111,-5 c -28,-120 -3,-280 -112,-366 -56,-36 -147,-76 -213,-46 -18,5 -28,18 -41,18 -41,35 -76,109 -58,170 30,150 203,173 248,302 -2,21 -17,41 -5,51 5,3 16,3 23,0 38,-53 21,-134 -20,-178 -66,-83 -175,-129 -170,-228 15,-36 33,-56 71,-66 48,5 89,53 112,91 106,181 83,401 83,602 l 11,0 z"
                 id="path169"
                 style="fill:none;stroke:none"
                 inkscape:connector-curvature="0" /><path
                 d="m 12385,8193 0,0 z"
                 id="path171"
                 style="fill:none;stroke:none"
                 inkscape:connector-curvature="0" /><path
                 d="m 17184,8153 c 15,0 35,2 48,-6 2,-2 5,-7 5,-15 -3,-2 -8,-10 -15,-13 l -28,-43 c 15,-71 109,-111 140,-170 53,-38 86,-99 137,-124 l 104,58 28,-15 c 12,-46 -54,-66 -69,-109 l 247,-313 c 0,-7 -3,-18 -8,-23 -31,-20 -76,0 -104,18 -120,66 -247,130 -384,145 -12,5 -25,18 -30,33 0,20 15,33 30,46 36,0 38,40 71,58 8,15 23,20 26,36 l -186,221 -89,45 11,135 c 5,10 15,25 35,30 l 31,6 z"
                 id="path173"
                 style="fill:none;stroke:none"
                 inkscape:connector-curvature="0" /><path
                 d="m 17184,8153 0,0 z"
                 id="path175"
                 style="fill:none;stroke:none"
                 inkscape:connector-curvature="0" /><path
                 d="m 13238,7944 c 0,0 10,0 15,-2 3,0 5,-5 8,-13 0,-8 -3,-18 -8,-23 l -104,-56 -23,-23 c -56,-86 0,-205 49,-279 63,-15 121,63 190,28 l 23,-79 -23,-43 c -5,-3 -13,-3 -18,0 l -40,58 c -66,-28 -132,-78 -163,-147 -18,-61 -43,-124 -8,-173 13,-15 16,-17 28,-22 41,2 87,5 112,-23 l 20,-87 c 0,-2 -5,-5 -12,-7 l -64,38 c -40,-13 -96,-15 -134,15 -23,48 -49,81 -72,117 -68,18 -177,-23 -228,41 -18,20 -15,48 -36,63 l 18,53 c 48,3 66,-96 135,-76 71,28 129,46 167,109 28,56 3,105 -2,155 -36,89 -76,191 -26,272 56,56 117,86 196,104 z"
                 id="path177"
                 style="fill:none;stroke:none"
                 inkscape:connector-curvature="0" /><path
                 d="m 13238,7944 0,0 z"
                 id="path179"
                 style="fill:none;stroke:none"
                 inkscape:connector-curvature="0" /><path
                 d="m 16777,7850 102,-23 c 7,-7 13,-25 7,-38 -43,-7 -106,13 -124,-40 0,-26 -3,-59 15,-79 87,-41 216,41 305,-26 l -30,-246 c -28,-28 -61,-8 -102,-8 -91,21 -150,67 -203,125 -51,69 -79,178 -41,272 l 66,63 5,0 z"
                 id="path181"
                 style="fill:none;stroke:none"
                 inkscape:connector-curvature="0" /><path
                 d="m 16777,7850 0,0 z"
                 id="path183"
                 style="fill:none;stroke:none"
                 inkscape:connector-curvature="0" /><path
                 d="m 17471,7632 c 5,-3 10,-3 15,-8 2,-7 10,-20 5,-30 l -51,12 c 0,3 0,11 5,18 3,3 3,5 16,10 l 10,-2 z"
                 id="path185"
                 style="fill:none;stroke:none"
                 inkscape:connector-curvature="0" /><path
                 d="m 17471,7632 0,0 z"
                 id="path187"
                 style="fill:none;stroke:none"
                 inkscape:connector-curvature="0" /><path
                 d="m 16848,7606 97,-10 23,-129 c -31,-18 -59,23 -87,48 -17,30 -48,51 -43,91 l 10,0 z"
                 id="path189"
                 style="fill:none;stroke:none"
                 inkscape:connector-curvature="0" /><path
                 d="m 16848,7606 0,0 z"
                 id="path191"
                 style="fill:none;stroke:none"
                 inkscape:connector-curvature="0" /><path
                 d="m 16323,7599 c 121,2 246,-54 317,-140 119,-140 66,-348 8,-516 -31,-60 -66,-134 -21,-195 l 59,-33 c -5,-23 -28,-38 -54,-36 -58,10 -104,38 -132,84 -25,97 -2,180 31,274 0,3 -3,11 -8,16 l -175,53 c -43,61 -69,137 -109,206 -8,33 -28,48 -48,61 -23,56 38,91 48,150 33,33 38,73 84,76 z"
                 id="path193"
                 style="fill:none;stroke:none"
                 inkscape:connector-curvature="0" /><path
                 d="m 16323,7599 0,0 z"
                 id="path195"
                 style="fill:none;stroke:none"
                 inkscape:connector-curvature="0" /><path
                 d="m 16378,7512 c 74,3 140,-40 188,-101 41,-51 54,-125 33,-188 -20,-31 -17,-79 -45,-92 l -112,31 c -43,61 -79,142 -117,218 -2,54 18,102 48,132 l 5,0 z"
                 id="path197"
                 style="fill:none;stroke:none"
                 inkscape:connector-curvature="0" /><path
                 d="m 16378,7512 0,0 z"
                 id="path199"
                 style="fill:none;stroke:none"
                 inkscape:connector-curvature="0" /><path
                 d="m 13652,7449 38,-3 c 51,-35 79,-83 107,-137 l -18,-23 c -58,5 -79,66 -127,94 -38,-2 -43,-43 -61,-71 5,-71 94,-129 140,-172 23,-16 43,-26 56,-46 l -13,-48 -208,-140 c -3,0 -13,2 -18,5 -97,71 -127,223 -97,358 36,99 102,155 201,183 z"
                 id="path201"
                 style="fill:none;stroke:none"
                 inkscape:connector-curvature="0" /><path
                 d="m 13652,7449 0,0 z"
                 id="path203"
                 style="fill:none;stroke:none"
                 inkscape:connector-curvature="0" /><path
                 d="m 15916,7434 97,-18 c 7,-5 15,-13 20,-28 0,-5 0,-10 -5,-13 l -64,-18 c -27,-78 44,-165 56,-243 3,-13 16,-23 31,-31 l 66,-23 c 2,-2 5,-7 7,-15 -55,-23 -114,-63 -152,-117 -56,-68 -135,5 -190,-33 -23,-20 -33,-40 -56,-48 l -104,30 c -11,6 -18,16 -23,33 0,6 2,13 7,16 l 56,0 c 13,2 28,17 33,33 l -71,241 c -5,18 -25,18 -38,33 -13,53 41,74 76,117 10,10 23,10 33,15 l 71,-33 c 8,-5 10,-15 16,-30 0,-5 -3,-11 -8,-13 l -48,-3 c -18,-5 -21,-25 -31,-45 l 89,-244 61,-28 86,56 c 13,5 16,20 23,35 l -76,226 c -5,5 -13,8 -23,16 -18,50 26,86 43,127 8,5 13,5 13,5 l 5,0 z"
                 id="path205"
                 style="fill:none;stroke:none"
                 inkscape:connector-curvature="0" /><path
                 d="m 15916,7434 0,0 z"
                 id="path207"
                 style="fill:none;stroke:none"
                 inkscape:connector-curvature="0" /><path
                 d="m 14112,7335 c 28,0 48,-16 66,-33 l 33,-102 c 0,0 -3,-5 -10,-8 l -82,36 c -15,-13 -43,-23 -53,-51 -30,-269 -94,-602 119,-805 0,-3 0,-8 -5,-13 l -28,3 c -78,66 -124,157 -167,254 -3,0 -8,2 -15,2 -36,-38 -74,-111 -143,-111 -10,5 -10,17 -10,28 48,60 112,111 125,203 12,48 15,86 22,152 l 0,28 c -5,74 36,221 -10,315 36,46 92,74 158,102 z"
                 id="path209"
                 style="fill:none;stroke:none"
                 inkscape:connector-curvature="0" /><path
                 d="m 14112,7335 0,0 z"
                 id="path211"
                 style="fill:none;stroke:none"
                 inkscape:connector-curvature="0" /><path
                 d="m 15368,7291 c 27,-15 76,-50 73,-91 -20,-18 -58,15 -81,-10 -61,-89 -8,-203 0,-295 l 104,-53 c 5,-10 10,-23 5,-33 -91,-23 -190,-23 -277,-76 -78,-13 -111,33 -167,73 -41,107 -51,224 -36,320 18,54 31,87 48,127 10,18 36,31 61,23 49,-2 59,-40 115,-38 10,-8 17,-10 28,-13 116,77 94,51 127,66 z"
                 id="path213"
                 style="fill:none;stroke:none"
                 inkscape:connector-curvature="0" /><path
                 d="m 15368,7291 0,0 z"
                 id="path215"
                 style="fill:none;stroke:none"
                 inkscape:connector-curvature="0" /><path
                 d="m 14599,7266 c 102,-51 173,-157 224,-244 -23,-117 -99,-185 -152,-279 -64,-21 -99,43 -143,66 -5,0 -12,0 -15,-8 -28,-104 15,-221 64,-312 35,-74 81,-132 124,-196 -2,-2 -5,-5 -8,-7 -25,5 -50,17 -66,45 -5,5 -12,5 -20,8 l -127,185 c -51,-10 -56,-101 -127,-104 l -18,0 c 115,178 89,463 64,686 -5,18 -3,20 -5,33 53,66 114,114 205,127 z"
                 id="path217"
                 style="fill:none;stroke:none"
                 inkscape:connector-curvature="0" /><path
                 d="m 14599,7266 0,0 z"
                 id="path219"
                 style="fill:none;stroke:none"
                 inkscape:connector-curvature="0" /><path
                 d="m 13571,7208 56,-64 22,-46 -71,-91 c -2,0 -10,0 -15,2 -2,3 -5,6 -10,11 -23,66 -10,127 8,193 l 10,-5 z"
                 id="path221"
                 style="fill:none;stroke:none"
                 inkscape:connector-curvature="0" /><path
                 d="m 13571,7208 0,0 z"
                 id="path223"
                 style="fill:none;stroke:none"
                 inkscape:connector-curvature="0" /><path
                 d="m 15147,7192 c 35,-2 76,-17 94,-55 2,-82 35,-178 0,-254 l -105,-36 c -53,81 -55,193 -45,290 l 50,55 6,0 z"
                 id="path225"
                 style="fill:none;stroke:none"
                 inkscape:connector-curvature="0" /><path
                 d="m 15147,7192 0,0 z"
                 id="path227"
                 style="fill:none;stroke:none"
                 inkscape:connector-curvature="0" /><path
                 d="m 14582,7175 c 25,5 48,-8 61,-31 43,-41 76,-99 81,-140 -8,-55 -51,-119 -102,-152 -48,-3 -84,25 -109,51 -23,58 -8,119 -18,170 18,46 41,91 87,102 z"
                 id="path229"
                 style="fill:none;stroke:none"
                 inkscape:connector-curvature="0" /><path
                 d="m 14582,7175 0,0 z"
                 id="path231"
                 style="fill:none;stroke:none"
                 inkscape:connector-curvature="0" /><path
                 d="m 14854,5994 c 2480,0 4504,2024 4504,4506 0,2483 -2024,4507 -4504,4507 -2482,0 -4506,-2024 -4506,-4507 0,-2482 2024,-4506 4506,-4506 z"
                 id="path233"
                 style="fill:none;stroke:none"
                 inkscape:connector-curvature="0" /><path
                 d="m 14854,5994 0,0 z"
                 id="path235"
                 style="fill:none;stroke:none"
                 inkscape:connector-curvature="0" /><path
                 d="m 14854,6062 c 2441,0 4435,1991 4435,4438 0,2442 -1994,4436 -4435,4436 -2444,0 -4435,-1994 -4435,-4436 0,-2447 1991,-4438 4435,-4438 z"
                 id="path237"
                 style="fill:none;stroke:none"
                 inkscape:connector-curvature="0" /></g></g></g></g></g></g></svg>